<svg width="319" height="346" viewBox="0 0 319 346" fill="none" xmlns="http://www.w3.org/2000/svg">
<rect width="319" height="346" rx="8" fill="white"/>
<rect x="33" y="139" width="79" height="22" rx="4" fill="#EFEFEF"/>
<rect x="122" y="139" width="79" height="22" rx="4" fill="#EFEFEF"/>
<rect x="211" y="139" width="79" height="22" rx="4" fill="#EFEFEF"/>
<path d="M37.9506 40.2646C37.9137 39.8922 37.7552 39.6029 37.4751 39.3967C37.1951 39.1905 36.815 39.0874 36.3349 39.0874C36.0086 39.0874 35.7332 39.1335 35.5085 39.2259C35.2839 39.3151 35.1115 39.4397 34.9915 39.5998C34.8745 39.7598 34.8161 39.9414 34.8161 40.1445C34.8099 40.3138 34.8453 40.4615 34.9222 40.5877C35.0022 40.7139 35.1115 40.8232 35.25 40.9155C35.3885 41.0047 35.5485 41.0832 35.7301 41.1509C35.9117 41.2156 36.1056 41.271 36.3118 41.3171L37.1612 41.5202C37.5736 41.6126 37.9522 41.7357 38.2969 41.8896C38.6416 42.0434 38.9401 42.2327 39.1925 42.4574C39.4448 42.6821 39.6403 42.9467 39.7788 43.2514C39.9203 43.5561 39.9927 43.9054 39.9957 44.2994C39.9927 44.878 39.8449 45.3796 39.5526 45.8043C39.2633 46.226 38.8447 46.5537 38.2969 46.7876C37.7521 47.0185 37.0951 47.1339 36.3256 47.1339C35.5624 47.1339 34.8976 47.0169 34.3313 46.783C33.7681 46.5491 33.328 46.2029 33.011 45.7443C32.6971 45.2827 32.5324 44.7118 32.517 44.0316H34.4513C34.4729 44.3486 34.5637 44.6133 34.7237 44.8256C34.8868 45.0349 35.1038 45.1934 35.3746 45.3011C35.6486 45.4058 35.9579 45.4581 36.3026 45.4581C36.6411 45.4581 36.935 45.4089 37.1843 45.3104C37.4367 45.2119 37.6321 45.0749 37.7706 44.8995C37.9091 44.7241 37.9783 44.5225 37.9783 44.2947C37.9783 44.0824 37.9152 43.9039 37.7891 43.7592C37.666 43.6146 37.4844 43.4915 37.2443 43.3899C37.0073 43.2884 36.7165 43.196 36.3718 43.1129L35.3423 42.8544C34.5452 42.6605 33.9158 42.3574 33.4542 41.945C32.9925 41.5326 32.7633 40.977 32.7663 40.2784C32.7633 39.706 32.9156 39.2058 33.2234 38.7781C33.5342 38.3503 33.9605 38.0163 34.5021 37.7763C35.0438 37.5362 35.6593 37.4162 36.3487 37.4162C37.0504 37.4162 37.6629 37.5362 38.1861 37.7763C38.7124 38.0163 39.1217 38.3503 39.4141 38.7781C39.7064 39.2058 39.8572 39.7013 39.8665 40.2646H37.9506ZM44.5072 47.1385C43.7901 47.1385 43.17 46.9862 42.6468 46.6815C42.1266 46.3737 41.725 45.9459 41.4419 45.3981C41.1587 44.8472 41.0171 44.2086 41.0171 43.4822C41.0171 42.7498 41.1587 42.1096 41.4419 41.5618C41.725 41.0109 42.1266 40.5831 42.6468 40.2784C43.17 39.9706 43.7901 39.8168 44.5072 39.8168C45.2243 39.8168 45.8429 39.9706 46.363 40.2784C46.8862 40.5831 47.2894 41.0109 47.5725 41.5618C47.8557 42.1096 47.9972 42.7498 47.9972 43.4822C47.9972 44.2086 47.8557 44.8472 47.5725 45.3981C47.2894 45.9459 46.8862 46.3737 46.363 46.6815C45.8429 46.9862 45.2243 47.1385 44.5072 47.1385ZM44.5164 45.6151C44.8427 45.6151 45.115 45.5227 45.3335 45.3381C45.5521 45.1503 45.7167 44.8949 45.8275 44.5717C45.9414 44.2486 45.9983 43.8808 45.9983 43.4684C45.9983 43.056 45.9414 42.6882 45.8275 42.3651C45.7167 42.0419 45.5521 41.7865 45.3335 41.5987C45.115 41.411 44.8427 41.3171 44.5164 41.3171C44.1871 41.3171 43.9101 41.411 43.6855 41.5987C43.4639 41.7865 43.2961 42.0419 43.1823 42.3651C43.0715 42.6882 43.0161 43.056 43.0161 43.4684C43.0161 43.8808 43.0715 44.2486 43.1823 44.5717C43.2961 44.8949 43.4639 45.1503 43.6855 45.3381C43.9101 45.5227 44.1871 45.6151 44.5164 45.6151ZM49.276 49.6591V39.9091H51.2149V41.1001H51.3026C51.3888 40.9093 51.5135 40.7154 51.6766 40.5185C51.8428 40.3184 52.0582 40.1522 52.3229 40.0199C52.5906 39.8845 52.923 39.8168 53.32 39.8168C53.8371 39.8168 54.3141 39.9522 54.7512 40.223C55.1882 40.4908 55.5375 40.8955 55.7991 41.4371C56.0607 41.9757 56.1915 42.6513 56.1915 43.4638C56.1915 44.2547 56.0638 44.9226 55.8083 45.4673C55.556 46.009 55.2113 46.4199 54.7742 46.6999C54.3403 46.9769 53.854 47.1154 53.3154 47.1154C52.9338 47.1154 52.6091 47.0523 52.3414 46.9261C52.0767 46.8 51.8597 46.6415 51.6904 46.4506C51.5212 46.2567 51.3919 46.0613 51.3026 45.8643H51.2426V49.6591H49.276ZM51.2011 43.4545C51.2011 43.8762 51.2596 44.244 51.3765 44.5579C51.4935 44.8718 51.6627 45.1165 51.8843 45.2919C52.1059 45.4643 52.3752 45.5504 52.6922 45.5504C53.0123 45.5504 53.2831 45.4627 53.5047 45.2873C53.7263 45.1088 53.894 44.8626 54.0079 44.5487C54.1249 44.2317 54.1833 43.867 54.1833 43.4545C54.1833 43.0452 54.1264 42.6851 54.0125 42.3743C53.8986 42.0634 53.7309 41.8203 53.5093 41.6449C53.2877 41.4695 53.0154 41.3817 52.6922 41.3817C52.3721 41.3817 52.1013 41.4664 51.8797 41.6357C51.6612 41.8049 51.4935 42.045 51.3765 42.3558C51.2596 42.6667 51.2011 43.0329 51.2011 43.4545ZM59.4692 42.9006V47H57.5026V37.5455H59.4138V41.1602H59.4969C59.6569 40.7416 59.9155 40.4138 60.2725 40.1768C60.6295 39.9368 61.0773 39.8168 61.6159 39.8168C62.1083 39.8168 62.5376 39.9245 62.9039 40.1399C63.2732 40.3523 63.5594 40.6585 63.7625 41.0586C63.9687 41.4556 64.0703 41.9311 64.0672 42.4851V47H62.1006V42.8359C62.1037 42.3989 61.9929 42.0588 61.7682 41.8157C61.5466 41.5726 61.2358 41.451 60.8357 41.451C60.5679 41.451 60.3309 41.5079 60.1247 41.6218C59.9216 41.7357 59.7616 41.9019 59.6446 42.1204C59.5307 42.3358 59.4723 42.5959 59.4692 42.9006ZM65.6149 47V39.9091H67.5815V47H65.6149ZM66.6028 38.995C66.3104 38.995 66.0596 38.8981 65.8503 38.7042C65.6441 38.5072 65.541 38.2718 65.541 37.9979C65.541 37.727 65.6441 37.4947 65.8503 37.3008C66.0596 37.1038 66.3104 37.0053 66.6028 37.0053C66.8952 37.0053 67.1445 37.1038 67.3507 37.3008C67.56 37.4947 67.6646 37.727 67.6646 37.9979C67.6646 38.2718 67.56 38.5072 67.3507 38.7042C67.1445 38.8981 66.8952 38.995 66.6028 38.995ZM71.1789 47.1339C70.7265 47.1339 70.3233 47.0554 69.9694 46.8984C69.6154 46.7384 69.3354 46.503 69.1292 46.1921C68.926 45.8782 68.8245 45.4873 68.8245 45.0195C68.8245 44.6256 68.8968 44.2947 69.0415 44.027C69.1861 43.7592 69.3831 43.5438 69.6324 43.3807C69.8817 43.2176 70.1648 43.0945 70.4818 43.0114C70.8019 42.9283 71.1373 42.8698 71.4882 42.8359C71.9006 42.7929 72.233 42.7528 72.4854 42.7159C72.7377 42.6759 72.9208 42.6174 73.0347 42.5405C73.1486 42.4635 73.2055 42.3497 73.2055 42.1989V42.1712C73.2055 41.8788 73.1132 41.6526 72.9285 41.4925C72.747 41.3325 72.4884 41.2525 72.153 41.2525C71.799 41.2525 71.5174 41.331 71.3081 41.4879C71.0989 41.6418 70.9604 41.8357 70.8927 42.0696L69.0738 41.9219C69.1661 41.491 69.3477 41.1186 69.6185 40.8047C69.8894 40.4877 70.2387 40.2446 70.6665 40.0753C71.0973 39.9029 71.5959 39.8168 72.1622 39.8168C72.5561 39.8168 72.9331 39.8629 73.2932 39.9553C73.6564 40.0476 73.978 40.1907 74.2581 40.3846C74.5412 40.5785 74.7644 40.8278 74.9275 41.1325C75.0906 41.4341 75.1721 41.7957 75.1721 42.2173V47H73.3071V46.0167H73.2517C73.1378 46.2383 72.9855 46.4337 72.7947 46.603C72.6038 46.7692 72.3746 46.9 72.1068 46.9954C71.839 47.0877 71.5297 47.1339 71.1789 47.1339ZM71.7421 45.7766C72.0314 45.7766 72.2868 45.7197 72.5084 45.6058C72.73 45.4889 72.9039 45.3319 73.0301 45.1349C73.1563 44.938 73.2194 44.7148 73.2194 44.4656V43.7131C73.1578 43.7531 73.0732 43.79 72.9655 43.8239C72.8608 43.8546 72.7423 43.8839 72.61 43.9116C72.4777 43.9362 72.3453 43.9593 72.213 43.9808C72.0806 43.9993 71.9606 44.0162 71.8529 44.0316C71.6221 44.0655 71.4205 44.1193 71.2481 44.1932C71.0758 44.267 70.9419 44.3671 70.8465 44.4933C70.7511 44.6164 70.7034 44.7702 70.7034 44.9549C70.7034 45.2227 70.8003 45.4273 70.9942 45.5689C71.1912 45.7074 71.4405 45.7766 71.7421 45.7766ZM79.7436 47V37.5455H83.5291C84.2247 37.5455 84.8048 37.6486 85.2695 37.8548C85.7343 38.061 86.0836 38.3472 86.3175 38.7134C86.5514 39.0766 86.6683 39.4951 86.6683 39.9691C86.6683 40.3384 86.5945 40.6631 86.4467 40.9432C86.299 41.2202 86.0959 41.4479 85.8374 41.6264C85.5819 41.8018 85.2895 41.9265 84.9602 42.0004V42.0927C85.3203 42.1081 85.6573 42.2096 85.9712 42.3974C86.2882 42.5851 86.5452 42.8482 86.7422 43.1868C86.9392 43.5223 87.0376 43.9223 87.0376 44.3871C87.0376 44.8887 86.913 45.3365 86.6637 45.7305C86.4175 46.1213 86.0528 46.4306 85.5696 46.6584C85.0864 46.8861 84.4909 47 83.783 47H79.7436ZM81.7425 45.3658H83.3722C83.9292 45.3658 84.3355 45.2596 84.5909 45.0472C84.8464 44.8318 84.9741 44.5456 84.9741 44.1886C84.9741 43.927 84.911 43.6961 84.7848 43.4961C84.6586 43.296 84.4786 43.1391 84.2447 43.0252C84.0138 42.9113 83.7384 42.8544 83.4183 42.8544H81.7425V45.3658ZM81.7425 41.5018H83.2244C83.4983 41.5018 83.7415 41.4541 83.9538 41.3587C84.1693 41.2602 84.3385 41.1217 84.4616 40.9432C84.5878 40.7647 84.6509 40.5508 84.6509 40.3015C84.6509 39.9599 84.5294 39.6844 84.2862 39.4751C84.0462 39.2659 83.7045 39.1612 83.2614 39.1612H81.7425V41.5018ZM90.3234 47.1339C89.871 47.1339 89.4678 47.0554 89.1139 46.8984C88.76 46.7384 88.4799 46.503 88.2737 46.1921C88.0706 45.8782 87.969 45.4873 87.969 45.0195C87.969 44.6256 88.0413 44.2947 88.186 44.027C88.3306 43.7592 88.5276 43.5438 88.7769 43.3807C89.0262 43.2176 89.3093 43.0945 89.6263 43.0114C89.9464 42.9283 90.2819 42.8698 90.6327 42.8359C91.0451 42.7929 91.3775 42.7528 91.6299 42.7159C91.8823 42.6759 92.0654 42.6174 92.1792 42.5405C92.2931 42.4635 92.3501 42.3497 92.3501 42.1989V42.1712C92.3501 41.8788 92.2577 41.6526 92.0731 41.4925C91.8915 41.3325 91.633 41.2525 91.2975 41.2525C90.9436 41.2525 90.662 41.331 90.4527 41.4879C90.2434 41.6418 90.1049 41.8357 90.0372 42.0696L88.2183 41.9219C88.3106 41.491 88.4922 41.1186 88.7631 40.8047C89.0339 40.4877 89.3832 40.2446 89.811 40.0753C90.2419 39.9029 90.7404 39.8168 91.3067 39.8168C91.7007 39.8168 92.0777 39.8629 92.4378 39.9553C92.8009 40.0476 93.1225 40.1907 93.4026 40.3846C93.6858 40.5785 93.9089 40.8278 94.072 41.1325C94.2351 41.4341 94.3167 41.7957 94.3167 42.2173V47H92.4516V46.0167H92.3962C92.2823 46.2383 92.13 46.4337 91.9392 46.603C91.7484 46.7692 91.5191 46.9 91.2513 46.9954C90.9836 47.0877 90.6743 47.1339 90.3234 47.1339ZM90.8866 45.7766C91.1759 45.7766 91.4314 45.7197 91.653 45.6058C91.8746 45.4889 92.0484 45.3319 92.1746 45.1349C92.3008 44.938 92.3639 44.7148 92.3639 44.4656V43.7131C92.3023 43.7531 92.2177 43.79 92.11 43.8239C92.0054 43.8546 91.8869 43.8839 91.7545 43.9116C91.6222 43.9362 91.4898 43.9593 91.3575 43.9808C91.2252 43.9993 91.1051 44.0162 90.9974 44.0316C90.7666 44.0655 90.565 44.1193 90.3927 44.1932C90.2203 44.267 90.0864 44.3671 89.991 44.4933C89.8956 44.6164 89.8479 44.7702 89.8479 44.9549C89.8479 45.2227 89.9449 45.4273 90.1388 45.5689C90.3357 45.7074 90.585 45.7766 90.8866 45.7766ZM95.8424 47V39.9091H97.749V41.1463H97.8229C97.9521 40.7062 98.1691 40.3738 98.4738 40.1491C98.7785 39.9214 99.1294 39.8075 99.5264 39.8075C99.6249 39.8075 99.731 39.8137 99.8449 39.826C99.9588 39.8383 100.059 39.8552 100.145 39.8768V41.6218C100.053 41.5941 99.9249 41.5695 99.7618 41.5479C99.5987 41.5264 99.4494 41.5156 99.314 41.5156C99.0247 41.5156 98.7662 41.5787 98.5384 41.7049C98.3138 41.828 98.1353 42.0004 98.0029 42.2219C97.8737 42.4435 97.809 42.699 97.809 42.9883V47H95.8424ZM103.128 42.9006V47H101.162V39.9091H103.036V41.1602H103.119C103.276 40.7478 103.539 40.4215 103.909 40.1815C104.278 39.9383 104.726 39.8168 105.252 39.8168C105.744 39.8168 106.174 39.9245 106.54 40.1399C106.906 40.3554 107.191 40.6631 107.394 41.0632C107.597 41.4602 107.699 41.9342 107.699 42.4851V47H105.732V42.8359C105.735 42.402 105.624 42.0634 105.4 41.8203C105.175 41.5741 104.866 41.451 104.472 41.451C104.207 41.451 103.973 41.5079 103.77 41.6218C103.57 41.7357 103.413 41.9019 103.299 42.1204C103.188 42.3358 103.131 42.5959 103.128 42.9006ZM112.48 47.1385C111.751 47.1385 111.123 46.9908 110.597 46.6953C110.073 46.3968 109.67 45.9751 109.387 45.4304C109.104 44.8826 108.962 44.2347 108.962 43.4869C108.962 42.7575 109.104 42.1173 109.387 41.5664C109.67 41.0155 110.069 40.5862 110.583 40.2784C111.1 39.9706 111.706 39.8168 112.402 39.8168C112.87 39.8168 113.305 39.8922 113.708 40.043C114.114 40.1907 114.468 40.4138 114.77 40.7124C115.075 41.0109 115.312 41.3864 115.481 41.8388C115.65 42.2881 115.735 42.8144 115.735 43.4176V43.9577H109.747V42.739H113.884C113.884 42.4558 113.822 42.205 113.699 41.9865C113.576 41.768 113.405 41.5972 113.187 41.4741C112.971 41.3479 112.72 41.2848 112.434 41.2848C112.136 41.2848 111.871 41.354 111.64 41.4925C111.412 41.628 111.234 41.8111 111.104 42.0419C110.975 42.2696 110.909 42.5236 110.906 42.8036V43.9624C110.906 44.3132 110.971 44.6164 111.1 44.8718C111.232 45.1272 111.418 45.3242 111.658 45.4627C111.899 45.6012 112.183 45.6705 112.513 45.6705C112.731 45.6705 112.931 45.6397 113.113 45.5781C113.294 45.5166 113.45 45.4242 113.579 45.3011C113.708 45.178 113.807 45.0272 113.874 44.8487L115.693 44.9688C115.601 45.4058 115.412 45.7874 115.125 46.1136C114.842 46.4368 114.476 46.6892 114.027 46.8707C113.58 47.0492 113.065 47.1385 112.48 47.1385ZM122.918 41.9311L121.118 42.0419C121.087 41.888 121.021 41.7495 120.919 41.6264C120.818 41.5002 120.684 41.4002 120.517 41.3263C120.354 41.2494 120.159 41.2109 119.931 41.2109C119.627 41.2109 119.37 41.2756 119.16 41.4048C118.951 41.531 118.846 41.7003 118.846 41.9126C118.846 42.0819 118.914 42.225 119.049 42.342C119.185 42.4589 119.417 42.5528 119.747 42.6236L121.03 42.8821C121.719 43.0237 122.233 43.2514 122.572 43.5653C122.91 43.8793 123.08 44.2917 123.08 44.8026C123.08 45.2673 122.943 45.6751 122.669 46.0259C122.398 46.3768 122.026 46.6507 121.552 46.8477C121.081 47.0415 120.537 47.1385 119.922 47.1385C118.983 47.1385 118.235 46.9431 117.678 46.5522C117.124 46.1583 116.8 45.6228 116.704 44.9457L118.639 44.8441C118.697 45.1303 118.839 45.3488 119.063 45.4996C119.288 45.6474 119.576 45.7212 119.927 45.7212C120.271 45.7212 120.548 45.6551 120.758 45.5227C120.97 45.3873 121.078 45.2134 121.081 45.0011C121.078 44.8226 121.002 44.6764 120.854 44.5625C120.707 44.4455 120.479 44.3563 120.171 44.2947L118.943 44.0501C118.251 43.9116 117.735 43.6715 117.397 43.3299C117.061 42.9883 116.894 42.5528 116.894 42.0234C116.894 41.5679 117.017 41.1755 117.263 40.8462C117.512 40.5169 117.861 40.263 118.311 40.0845C118.763 39.906 119.293 39.8168 119.899 39.8168C120.794 39.8168 121.499 40.006 122.013 40.3846C122.53 40.7631 122.832 41.2786 122.918 41.9311Z" fill="black"/>
<rect x="33" y="68" width="117" height="4" fill="#D9D9D9"/>
<rect x="33" y="82" width="103" height="4" fill="#D9D9D9"/>
<rect x="33" y="96" width="117" height="4" fill="#D9D9D9"/>
<rect x="33" y="110" width="86" height="4" fill="#D9D9D9"/>
<path opacity="0.7" d="M242.391 84.1094C241.854 84.1094 241.38 84.0143 240.969 83.8242C240.56 83.6315 240.241 83.3672 240.012 83.0312C239.783 82.6927 239.669 82.3073 239.672 81.875C239.669 81.5365 239.736 81.224 239.871 80.9375C240.007 80.6484 240.191 80.4076 240.426 80.2148C240.663 80.0195 240.927 79.8958 241.219 79.8438V79.7969C240.836 79.6979 240.531 79.4831 240.305 79.1523C240.078 78.819 239.966 78.4401 239.969 78.0156C239.966 77.6094 240.069 77.2461 240.277 76.9258C240.486 76.6055 240.772 76.3529 241.137 76.168C241.504 75.9831 241.922 75.8906 242.391 75.8906C242.854 75.8906 243.268 75.9831 243.633 76.168C243.997 76.3529 244.284 76.6055 244.492 76.9258C244.703 77.2461 244.81 77.6094 244.813 78.0156C244.81 78.4401 244.694 78.819 244.465 79.1523C244.238 79.4831 243.938 79.6979 243.563 79.7969V79.8438C243.852 79.8958 244.112 80.0195 244.344 80.2148C244.576 80.4076 244.76 80.6484 244.898 80.9375C245.036 81.224 245.107 81.5365 245.109 81.875C245.107 82.3073 244.99 82.6927 244.758 83.0312C244.529 83.3672 244.21 83.6315 243.801 83.8242C243.395 84.0143 242.924 84.1094 242.391 84.1094ZM242.391 83.25C242.753 83.25 243.065 83.1914 243.328 83.0742C243.591 82.957 243.794 82.7917 243.938 82.5781C244.081 82.3646 244.154 82.1146 244.156 81.8281C244.154 81.526 244.076 81.2591 243.922 81.0273C243.768 80.7956 243.559 80.6133 243.293 80.4805C243.03 80.3477 242.729 80.2812 242.391 80.2812C242.049 80.2812 241.745 80.3477 241.477 80.4805C241.211 80.6133 241.001 80.7956 240.848 81.0273C240.697 81.2591 240.622 81.526 240.625 81.8281C240.622 82.1146 240.691 82.3646 240.832 82.5781C240.975 82.7917 241.18 82.957 241.445 83.0742C241.711 83.1914 242.026 83.25 242.391 83.25ZM242.391 79.4531C242.677 79.4531 242.931 79.3958 243.152 79.2812C243.376 79.1667 243.552 79.0065 243.68 78.8008C243.807 78.5951 243.872 78.3542 243.875 78.0781C243.872 77.8073 243.809 77.5716 243.684 77.3711C243.559 77.168 243.385 77.0117 243.164 76.9023C242.943 76.7904 242.685 76.7344 242.391 76.7344C242.091 76.7344 241.829 76.7904 241.605 76.9023C241.382 77.0117 241.208 77.168 241.086 77.3711C240.964 77.5716 240.904 77.8073 240.906 78.0781C240.904 78.3542 240.965 78.5951 241.09 78.8008C241.217 79.0065 241.393 79.1667 241.617 79.2812C241.841 79.3958 242.099 79.4531 242.391 79.4531ZM252.544 75.625L249.966 85.2031H249.122L251.7 75.625H252.544ZM259.527 76V84H258.559V77.0156H258.512L256.559 78.3125V77.3281L258.559 76H259.527ZM264.438 84.1094C263.849 84.1094 263.348 83.9492 262.934 83.6289C262.52 83.306 262.203 82.8385 261.984 82.2266C261.766 81.612 261.656 80.8698 261.656 80C261.656 79.1354 261.766 78.3971 261.984 77.7852C262.206 77.1706 262.523 76.7018 262.938 76.3789C263.354 76.0534 263.854 75.8906 264.438 75.8906C265.021 75.8906 265.52 76.0534 265.934 76.3789C266.35 76.7018 266.668 77.1706 266.887 77.7852C267.108 78.3971 267.219 79.1354 267.219 80C267.219 80.8698 267.109 81.612 266.891 82.2266C266.672 82.8385 266.355 83.306 265.941 83.6289C265.527 83.9492 265.026 84.1094 264.438 84.1094ZM264.438 83.25C265.021 83.25 265.474 82.9687 265.797 82.4062C266.12 81.8437 266.281 81.0417 266.281 80C266.281 79.3073 266.207 78.7174 266.059 78.2305C265.913 77.7435 265.702 77.3724 265.426 77.1172C265.152 76.862 264.823 76.7344 264.438 76.7344C263.859 76.7344 263.408 77.0195 263.082 77.5898C262.757 78.1576 262.594 78.9609 262.594 80C262.594 80.6927 262.667 81.2812 262.813 81.7656C262.958 82.25 263.168 82.6185 263.441 82.8711C263.717 83.1237 264.049 83.25 264.438 83.25ZM240.078 104L243.656 96.9219V96.8594H239.531V96H244.656V96.9062L241.094 104H240.078ZM249.222 104V98H250.112V98.9375H250.19C250.315 98.6172 250.517 98.3685 250.796 98.1914C251.075 98.0117 251.409 97.9219 251.8 97.9219C252.196 97.9219 252.525 98.0117 252.788 98.1914C253.054 98.3685 253.261 98.6172 253.409 98.9375H253.472C253.625 98.6276 253.856 98.3815 254.163 98.1992C254.47 98.0143 254.839 97.9219 255.269 97.9219C255.805 97.9219 256.244 98.0898 256.585 98.4258C256.926 98.7591 257.097 99.2786 257.097 99.9844V104H256.175V99.9844C256.175 99.5417 256.054 99.2253 255.812 99.0352C255.569 98.8451 255.284 98.75 254.956 98.75C254.534 98.75 254.207 98.8776 253.976 99.1328C253.744 99.3854 253.628 99.7057 253.628 100.094V104H252.69V99.8906C252.69 99.5495 252.58 99.2747 252.358 99.0664C252.137 98.8555 251.852 98.75 251.503 98.75C251.263 98.75 251.039 98.8138 250.831 98.9414C250.625 99.069 250.459 99.2461 250.331 99.4727C250.206 99.6966 250.144 99.9557 250.144 100.25V104H249.222ZM258.782 104V98H259.704V104H258.782ZM259.251 97C259.071 97 258.916 96.9388 258.786 96.8164C258.659 96.694 258.595 96.5469 258.595 96.375C258.595 96.2031 258.659 96.056 258.786 95.9336C258.916 95.8112 259.071 95.75 259.251 95.75C259.431 95.75 259.584 95.8112 259.712 95.9336C259.842 96.056 259.907 96.2031 259.907 96.375C259.907 96.5469 259.842 96.694 259.712 96.8164C259.584 96.9388 259.431 97 259.251 97ZM262.314 100.391V104H261.393V98H262.283V98.9375H262.361C262.502 98.6328 262.715 98.388 263.002 98.2031C263.288 98.0156 263.658 97.9219 264.111 97.9219C264.518 97.9219 264.873 98.0052 265.178 98.1719C265.482 98.3359 265.719 98.5859 265.889 98.9219C266.058 99.2552 266.143 99.6771 266.143 100.188V104H265.221V100.25C265.221 99.7786 265.098 99.4115 264.854 99.1484C264.609 98.8828 264.273 98.75 263.846 98.75C263.551 98.75 263.288 98.8138 263.057 98.9414C262.827 99.069 262.646 99.2552 262.514 99.5C262.381 99.7448 262.314 100.042 262.314 100.391ZM273.608 104.109C273.093 104.109 272.633 104.021 272.229 103.844C271.828 103.667 271.509 103.421 271.272 103.105C271.038 102.788 270.91 102.419 270.89 102H271.874C271.895 102.258 271.983 102.48 272.14 102.668C272.296 102.853 272.5 102.996 272.753 103.098C273.006 103.199 273.285 103.25 273.593 103.25C273.937 103.25 274.241 103.19 274.507 103.07C274.772 102.951 274.981 102.784 275.132 102.57C275.283 102.357 275.358 102.109 275.358 101.828C275.358 101.534 275.285 101.275 275.14 101.051C274.994 100.824 274.78 100.647 274.499 100.52C274.218 100.392 273.874 100.328 273.468 100.328H272.827V99.4687H273.468C273.785 99.4687 274.064 99.4115 274.304 99.2969C274.546 99.1823 274.735 99.0208 274.87 98.8125C275.008 98.6042 275.077 98.3594 275.077 98.0781C275.077 97.8073 275.017 97.5716 274.897 97.3711C274.778 97.1706 274.608 97.0143 274.39 96.9023C274.174 96.7904 273.918 96.7344 273.624 96.7344C273.348 96.7344 273.088 96.7852 272.843 96.8867C272.601 96.9857 272.403 97.1302 272.249 97.3203C272.095 97.5078 272.012 97.7344 271.999 98H271.062C271.077 97.5807 271.203 97.2135 271.44 96.8984C271.677 96.5807 271.987 96.3333 272.37 96.1562C272.756 95.9792 273.179 95.8906 273.64 95.8906C274.134 95.8906 274.559 95.9909 274.913 96.1914C275.267 96.3893 275.539 96.651 275.729 96.9766C275.92 97.3021 276.015 97.6536 276.015 98.0313C276.015 98.4818 275.896 98.8659 275.659 99.1836C275.425 99.5013 275.106 99.7214 274.702 99.8438V99.9062C275.207 99.9896 275.602 100.204 275.886 100.551C276.17 100.895 276.312 101.32 276.312 101.828C276.312 102.263 276.193 102.654 275.956 103C275.722 103.344 275.401 103.615 274.995 103.812C274.589 104.01 274.127 104.109 273.608 104.109ZM280.456 95.8906C280.784 95.8932 281.112 95.9557 281.44 96.0781C281.769 96.2005 282.068 96.4036 282.339 96.6875C282.61 96.9687 282.827 97.3529 282.991 97.8398C283.155 98.3268 283.237 98.9375 283.237 99.6719C283.237 100.383 283.17 101.014 283.034 101.566C282.901 102.116 282.709 102.579 282.456 102.957C282.206 103.335 281.901 103.621 281.542 103.816C281.185 104.012 280.782 104.109 280.331 104.109C279.883 104.109 279.483 104.021 279.132 103.844C278.783 103.664 278.496 103.415 278.272 103.098C278.051 102.777 277.909 102.406 277.847 101.984H278.8C278.886 102.352 279.056 102.655 279.312 102.895C279.569 103.132 279.909 103.25 280.331 103.25C280.948 103.25 281.435 102.98 281.792 102.441C282.151 101.902 282.331 101.141 282.331 100.156H282.269C282.123 100.375 281.95 100.564 281.749 100.723C281.549 100.882 281.326 101.004 281.081 101.09C280.836 101.176 280.576 101.219 280.3 101.219C279.841 101.219 279.421 101.105 279.038 100.879C278.658 100.65 278.353 100.336 278.124 99.9375C277.897 99.5365 277.784 99.0781 277.784 98.5625C277.784 98.0729 277.894 97.625 278.112 97.2187C278.334 96.8099 278.644 96.4844 279.042 96.2422C279.443 96 279.914 95.8828 280.456 95.8906ZM280.456 96.75C280.128 96.75 279.832 96.832 279.569 96.9961C279.309 97.1576 279.102 97.3763 278.948 97.6523C278.797 97.9258 278.722 98.2292 278.722 98.5625C278.722 98.8958 278.795 99.1992 278.94 99.4727C279.089 99.7435 279.291 99.9596 279.546 100.121C279.804 100.28 280.097 100.359 280.425 100.359C280.672 100.359 280.903 100.311 281.116 100.215C281.33 100.116 281.516 99.9818 281.675 99.8125C281.836 99.6406 281.963 99.4466 282.054 99.2305C282.145 99.0117 282.19 98.7839 282.19 98.5469C282.19 98.2344 282.115 97.9414 281.964 97.668C281.815 97.3945 281.61 97.1732 281.347 97.0039C281.086 96.8346 280.789 96.75 280.456 96.75ZM289.039 99.3437L288.211 99.5781C288.159 99.4401 288.082 99.306 287.98 99.1758C287.882 99.043 287.746 98.9336 287.574 98.8477C287.402 98.7617 287.182 98.7187 286.914 98.7187C286.547 98.7187 286.241 98.8034 285.996 98.9727C285.754 99.1393 285.633 99.3516 285.633 99.6094C285.633 99.8385 285.716 100.02 285.883 100.152C286.049 100.285 286.31 100.396 286.664 100.484L287.555 100.703C288.091 100.833 288.491 101.033 288.754 101.301C289.017 101.566 289.148 101.909 289.148 102.328C289.148 102.672 289.049 102.979 288.852 103.25C288.656 103.521 288.383 103.734 288.031 103.891C287.68 104.047 287.271 104.125 286.805 104.125C286.193 104.125 285.686 103.992 285.285 103.727C284.884 103.461 284.63 103.073 284.523 102.562L285.398 102.344C285.482 102.667 285.639 102.909 285.871 103.07C286.105 103.232 286.411 103.312 286.789 103.312C287.219 103.312 287.56 103.221 287.812 103.039C288.068 102.854 288.195 102.633 288.195 102.375C288.195 102.167 288.122 101.992 287.977 101.852C287.831 101.708 287.607 101.602 287.305 101.531L286.305 101.297C285.755 101.167 285.352 100.965 285.094 100.691C284.839 100.415 284.711 100.07 284.711 99.6562C284.711 99.3177 284.806 99.0182 284.996 98.7578C285.189 98.4974 285.451 98.293 285.781 98.1445C286.115 97.9961 286.492 97.9219 286.914 97.9219C287.508 97.9219 287.974 98.0521 288.313 98.3125C288.654 98.5729 288.896 98.9167 289.039 99.3437Z" fill="black"/>
<path opacity="0.7" d="M175.969 84V76H178.672C179.299 76 179.813 76.1133 180.211 76.3398C180.612 76.5638 180.909 76.8672 181.102 77.25C181.294 77.6328 181.391 78.0599 181.391 78.5312C181.391 79.0026 181.294 79.431 181.102 79.8164C180.911 80.2018 180.617 80.5091 180.219 80.7383C179.82 80.9648 179.31 81.0781 178.688 81.0781H176.75V80.2188H178.656C179.086 80.2188 179.431 80.1445 179.691 79.9961C179.952 79.8477 180.141 79.6471 180.258 79.3945C180.378 79.1393 180.438 78.8516 180.438 78.5312C180.438 78.2109 180.378 77.9245 180.258 77.6719C180.141 77.4193 179.951 77.2214 179.688 77.0781C179.424 76.9323 179.076 76.8594 178.641 76.8594H176.938V84H175.969ZM185.199 84.125C184.658 84.125 184.182 83.9961 183.773 83.7383C183.367 83.4805 183.049 83.1198 182.82 82.6562C182.594 82.1927 182.48 81.651 182.48 81.0312C182.48 80.4062 182.594 79.8607 182.82 79.3945C183.049 78.9284 183.367 78.5664 183.773 78.3086C184.182 78.0508 184.658 77.9219 185.199 77.9219C185.741 77.9219 186.215 78.0508 186.621 78.3086C187.03 78.5664 187.348 78.9284 187.574 79.3945C187.803 79.8607 187.918 80.4062 187.918 81.0312C187.918 81.651 187.803 82.1927 187.574 82.6562C187.348 83.1198 187.03 83.4805 186.621 83.7383C186.215 83.9961 185.741 84.125 185.199 84.125ZM185.199 83.2969C185.611 83.2969 185.949 83.1914 186.215 82.9805C186.48 82.7695 186.677 82.4922 186.805 82.1484C186.932 81.8047 186.996 81.4323 186.996 81.0312C186.996 80.6302 186.932 80.2565 186.805 79.9102C186.677 79.5638 186.48 79.2839 186.215 79.0703C185.949 78.8568 185.611 78.75 185.199 78.75C184.788 78.75 184.449 78.8568 184.184 79.0703C183.918 79.2839 183.721 79.5638 183.594 79.9102C183.466 80.2565 183.402 80.6302 183.402 81.0312C183.402 81.4323 183.466 81.8047 183.594 82.1484C183.721 82.4922 183.918 82.7695 184.184 82.9805C184.449 83.1914 184.788 83.2969 185.199 83.2969ZM189.325 84V78H190.247V84H189.325ZM189.794 77C189.614 77 189.459 76.9388 189.329 76.8164C189.201 76.694 189.138 76.5469 189.138 76.375C189.138 76.2031 189.201 76.056 189.329 75.9336C189.459 75.8112 189.614 75.75 189.794 75.75C189.974 75.75 190.127 75.8112 190.255 75.9336C190.385 76.056 190.45 76.2031 190.45 76.375C190.45 76.5469 190.385 76.694 190.255 76.8164C190.127 76.9388 189.974 77 189.794 77ZM192.857 80.3906V84H191.936V78H192.826V78.9375H192.904C193.045 78.6328 193.258 78.388 193.545 78.2031C193.831 78.0156 194.201 77.9219 194.654 77.9219C195.061 77.9219 195.416 78.0052 195.721 78.1719C196.025 78.3359 196.262 78.5859 196.432 78.9219C196.601 79.2552 196.686 79.6771 196.686 80.1875V84H195.764V80.25C195.764 79.7786 195.641 79.4115 195.396 79.1484C195.152 78.8828 194.816 78.75 194.389 78.75C194.094 78.75 193.831 78.8138 193.6 78.9414C193.37 79.069 193.189 79.2552 193.057 79.5C192.924 79.7448 192.857 80.0417 192.857 80.3906ZM200.979 78V78.7812H197.87V78H200.979ZM198.776 76.5625H199.698V82.2812C199.698 82.5417 199.736 82.737 199.812 82.8672C199.89 82.9948 199.989 83.0807 200.108 83.125C200.231 83.1667 200.36 83.1875 200.495 83.1875C200.597 83.1875 200.68 83.1823 200.745 83.1719C200.81 83.1589 200.862 83.1484 200.901 83.1406L201.089 83.9687C201.026 83.9922 200.939 84.0156 200.827 84.0391C200.715 84.0651 200.573 84.0781 200.401 84.0781C200.141 84.0781 199.886 84.0221 199.636 83.9102C199.388 83.7982 199.183 83.6276 199.019 83.3984C198.857 83.1693 198.776 82.8802 198.776 82.5312V76.5625ZM206.509 79.3437L205.681 79.5781C205.629 79.4401 205.552 79.306 205.45 79.1758C205.351 79.043 205.216 78.9336 205.044 78.8477C204.872 78.7617 204.652 78.7187 204.384 78.7187C204.017 78.7187 203.711 78.8034 203.466 78.9727C203.224 79.1393 203.103 79.3516 203.103 79.6094C203.103 79.8385 203.186 80.0195 203.353 80.1523C203.519 80.2852 203.78 80.3958 204.134 80.4844L205.024 80.7031C205.561 80.8333 205.961 81.0326 206.224 81.3008C206.487 81.5664 206.618 81.9089 206.618 82.3281C206.618 82.6719 206.519 82.9792 206.321 83.25C206.126 83.5208 205.853 83.7344 205.501 83.8906C205.149 84.0469 204.741 84.125 204.274 84.125C203.662 84.125 203.156 83.9922 202.755 83.7266C202.354 83.4609 202.1 83.0729 201.993 82.5625L202.868 82.3437C202.951 82.6667 203.109 82.9089 203.341 83.0703C203.575 83.2318 203.881 83.3125 204.259 83.3125C204.688 83.3125 205.03 83.2214 205.282 83.0391C205.537 82.8542 205.665 82.6328 205.665 82.375C205.665 82.1667 205.592 81.9922 205.446 81.8516C205.3 81.7083 205.076 81.6016 204.774 81.5312L203.774 81.2969C203.225 81.1667 202.821 80.9648 202.563 80.6914C202.308 80.4154 202.181 80.0703 202.181 79.6562C202.181 79.3177 202.276 79.0182 202.466 78.7578C202.659 78.4974 202.92 78.293 203.251 78.1445C203.584 77.9961 203.962 77.9219 204.384 77.9219C204.978 77.9219 205.444 78.0521 205.782 78.3125C206.123 78.5729 206.366 78.9167 206.509 79.3437ZM178.438 104H175.969V96H178.547C179.323 96 179.987 96.1602 180.539 96.4805C181.091 96.7982 181.514 97.2552 181.809 97.8516C182.103 98.4453 182.25 99.1562 182.25 99.9844C182.25 100.818 182.102 101.535 181.805 102.137C181.508 102.736 181.076 103.197 180.508 103.52C179.94 103.84 179.25 104 178.438 104ZM176.938 103.141H178.375C179.036 103.141 179.585 103.013 180.02 102.758C180.454 102.503 180.779 102.139 180.992 101.668C181.206 101.197 181.312 100.635 181.312 99.9844C181.312 99.3385 181.207 98.7826 180.996 98.3164C180.785 97.8477 180.47 97.4883 180.051 97.2383C179.632 96.9857 179.109 96.8594 178.484 96.8594H176.938V103.141ZM187.531 101.547V98H188.453V104H187.531V102.984H187.469C187.328 103.289 187.109 103.548 186.813 103.762C186.516 103.973 186.141 104.078 185.687 104.078C185.312 104.078 184.979 103.996 184.688 103.832C184.396 103.665 184.167 103.415 184 103.082C183.833 102.746 183.75 102.323 183.75 101.812V98H184.672V101.75C184.672 102.187 184.794 102.536 185.039 102.797C185.286 103.057 185.602 103.187 185.984 103.187C186.214 103.187 186.447 103.129 186.684 103.012C186.923 102.895 187.124 102.715 187.285 102.473C187.449 102.23 187.531 101.922 187.531 101.547ZM190.142 104V98H191.032V98.9062H191.095C191.204 98.6094 191.402 98.3685 191.688 98.1836C191.975 97.9987 192.298 97.9062 192.657 97.9062C192.725 97.9062 192.81 97.9076 192.911 97.9102C193.013 97.9128 193.09 97.9167 193.142 97.9219V98.8594C193.11 98.8516 193.039 98.8398 192.927 98.8242C192.817 98.806 192.701 98.7969 192.579 98.7969C192.287 98.7969 192.027 98.8581 191.798 98.9805C191.571 99.1003 191.392 99.2669 191.259 99.4805C191.129 99.6914 191.063 99.9323 191.063 100.203V104H190.142ZM196 104.141C195.62 104.141 195.275 104.069 194.965 103.926C194.655 103.78 194.409 103.57 194.227 103.297C194.044 103.021 193.953 102.687 193.953 102.297C193.953 101.953 194.021 101.674 194.156 101.461C194.292 101.245 194.473 101.076 194.699 100.953C194.926 100.831 195.176 100.74 195.449 100.68C195.725 100.617 196.003 100.568 196.281 100.531C196.646 100.484 196.941 100.449 197.168 100.426C197.397 100.4 197.564 100.357 197.668 100.297C197.775 100.237 197.828 100.133 197.828 99.9844V99.9531C197.828 99.5677 197.723 99.2682 197.512 99.0547C197.303 98.8411 196.987 98.7344 196.563 98.7344C196.122 98.7344 195.777 98.8307 195.527 99.0234C195.277 99.2161 195.102 99.4219 195 99.6406L194.125 99.3281C194.281 98.9635 194.49 98.6797 194.75 98.4766C195.013 98.2708 195.299 98.1276 195.609 98.0469C195.922 97.9635 196.229 97.9219 196.531 97.9219C196.724 97.9219 196.945 97.9453 197.195 97.9922C197.448 98.0365 197.691 98.1289 197.926 98.2695C198.163 98.4102 198.359 98.6224 198.516 98.9062C198.672 99.1901 198.75 99.5703 198.75 100.047V104H197.828V103.187H197.781C197.719 103.318 197.615 103.457 197.469 103.605C197.323 103.754 197.129 103.88 196.887 103.984C196.645 104.089 196.349 104.141 196 104.141ZM196.141 103.312C196.505 103.312 196.813 103.241 197.063 103.098C197.315 102.954 197.505 102.77 197.633 102.543C197.763 102.316 197.828 102.078 197.828 101.828V100.984C197.789 101.031 197.703 101.074 197.57 101.113C197.44 101.15 197.289 101.182 197.117 101.211C196.948 101.237 196.783 101.26 196.621 101.281C196.462 101.299 196.333 101.315 196.234 101.328C195.995 101.359 195.771 101.41 195.563 101.48C195.357 101.548 195.19 101.651 195.063 101.789C194.938 101.924 194.875 102.109 194.875 102.344C194.875 102.664 194.993 102.906 195.23 103.07C195.47 103.232 195.773 103.312 196.141 103.312ZM203.042 98V98.7812H199.933V98H203.042ZM200.839 96.5625H201.761V102.281C201.761 102.542 201.799 102.737 201.874 102.867C201.952 102.995 202.051 103.081 202.171 103.125C202.293 103.167 202.422 103.187 202.558 103.187C202.659 103.187 202.743 103.182 202.808 103.172C202.873 103.159 202.925 103.148 202.964 103.141L203.151 103.969C203.089 103.992 203.002 104.016 202.89 104.039C202.778 104.065 202.636 104.078 202.464 104.078C202.203 104.078 201.948 104.022 201.698 103.91C201.451 103.798 201.245 103.628 201.081 103.398C200.92 103.169 200.839 102.88 200.839 102.531V96.5625ZM204.429 104V98H205.351V104H204.429ZM204.897 97C204.718 97 204.563 96.9388 204.433 96.8164C204.305 96.694 204.241 96.5469 204.241 96.375C204.241 96.2031 204.305 96.056 204.433 95.9336C204.563 95.8112 204.718 95.75 204.897 95.75C205.077 95.75 205.231 95.8112 205.358 95.9336C205.489 96.056 205.554 96.2031 205.554 96.375C205.554 96.5469 205.489 96.694 205.358 96.8164C205.231 96.9388 205.077 97 204.897 97ZM209.477 104.125C208.935 104.125 208.46 103.996 208.051 103.738C207.645 103.48 207.327 103.12 207.098 102.656C206.871 102.193 206.758 101.651 206.758 101.031C206.758 100.406 206.871 99.8607 207.098 99.3945C207.327 98.9284 207.645 98.5664 208.051 98.3086C208.46 98.0508 208.935 97.9219 209.477 97.9219C210.018 97.9219 210.492 98.0508 210.898 98.3086C211.307 98.5664 211.625 98.9284 211.852 99.3945C212.081 99.8607 212.195 100.406 212.195 101.031C212.195 101.651 212.081 102.193 211.852 102.656C211.625 103.12 211.307 103.48 210.898 103.738C210.492 103.996 210.018 104.125 209.477 104.125ZM209.477 103.297C209.888 103.297 210.227 103.191 210.492 102.98C210.758 102.77 210.954 102.492 211.082 102.148C211.21 101.805 211.273 101.432 211.273 101.031C211.273 100.63 211.21 100.257 211.082 99.9102C210.954 99.5638 210.758 99.2839 210.492 99.0703C210.227 98.8568 209.888 98.75 209.477 98.75C209.065 98.75 208.727 98.8568 208.461 99.0703C208.195 99.2839 207.999 99.5638 207.871 99.9102C207.743 100.257 207.68 100.63 207.68 101.031C207.68 101.432 207.743 101.805 207.871 102.148C207.999 102.492 208.195 102.77 208.461 102.98C208.727 103.191 209.065 103.297 209.477 103.297ZM214.524 100.391V104H213.603V98H214.493V98.9375H214.571C214.712 98.6328 214.925 98.388 215.212 98.2031C215.498 98.0156 215.868 97.9219 216.321 97.9219C216.728 97.9219 217.083 98.0052 217.388 98.1719C217.692 98.3359 217.929 98.5859 218.099 98.9219C218.268 99.2552 218.353 99.6771 218.353 100.188V104H217.431V100.25C217.431 99.7786 217.308 99.4115 217.063 99.1484C216.819 98.8828 216.483 98.75 216.056 98.75C215.761 98.75 215.498 98.8138 215.267 98.9414C215.037 99.069 214.856 99.2552 214.724 99.5C214.591 99.7448 214.524 100.042 214.524 100.391Z" fill="black"/>
<path opacity="0.7" d="M32.9688 241V233H33.9375V236.562H38.2031V233H39.1719V241H38.2031V237.422H33.9375V241H32.9688ZM43.502 241.125C42.9238 241.125 42.4251 240.997 42.0059 240.742C41.5892 240.484 41.2676 240.125 41.041 239.664C40.8171 239.201 40.7051 238.661 40.7051 238.047C40.7051 237.432 40.8171 236.891 41.041 236.422C41.2676 235.951 41.5827 235.583 41.9863 235.32C42.3926 235.055 42.8665 234.922 43.4082 234.922C43.7207 234.922 44.0293 234.974 44.334 235.078C44.6387 235.182 44.916 235.352 45.166 235.586C45.416 235.818 45.6152 236.125 45.7637 236.508C45.9121 236.891 45.9863 237.362 45.9863 237.922V238.312H41.3613V237.516H45.0488C45.0488 237.177 44.9811 236.875 44.8457 236.609C44.7129 236.344 44.5228 236.134 44.2754 235.98C44.0306 235.827 43.7415 235.75 43.4082 235.75C43.041 235.75 42.7233 235.841 42.4551 236.023C42.1895 236.203 41.985 236.437 41.8418 236.727C41.6986 237.016 41.627 237.326 41.627 237.656V238.188C41.627 238.641 41.7051 239.025 41.8613 239.34C42.0202 239.652 42.2402 239.891 42.5215 240.055C42.8027 240.216 43.1296 240.297 43.502 240.297C43.7441 240.297 43.9629 240.263 44.1582 240.195C44.3561 240.125 44.5267 240.021 44.6699 239.883C44.8132 239.742 44.9238 239.568 45.002 239.359L45.8926 239.609C45.7988 239.911 45.6413 240.177 45.4199 240.406C45.1986 240.633 44.9251 240.81 44.5996 240.937C44.2741 241.063 43.9082 241.125 43.502 241.125ZM49.1543 241.141C48.7741 241.141 48.429 241.069 48.1191 240.926C47.8092 240.78 47.5632 240.57 47.3809 240.297C47.1986 240.021 47.1074 239.687 47.1074 239.297C47.1074 238.953 47.1751 238.674 47.3105 238.461C47.446 238.245 47.627 238.076 47.8535 237.953C48.0801 237.831 48.3301 237.74 48.6035 237.68C48.8796 237.617 49.1569 237.568 49.4355 237.531C49.8001 237.484 50.0957 237.449 50.3223 237.426C50.5514 237.4 50.7181 237.357 50.8223 237.297C50.929 237.237 50.9824 237.133 50.9824 236.984V236.953C50.9824 236.568 50.877 236.268 50.666 236.055C50.4577 235.841 50.1413 235.734 49.7168 235.734C49.2767 235.734 48.9316 235.831 48.6816 236.023C48.4316 236.216 48.2559 236.422 48.1543 236.641L47.2793 236.328C47.4355 235.964 47.6439 235.68 47.9043 235.477C48.1673 235.271 48.4538 235.128 48.7637 235.047C49.0762 234.964 49.3835 234.922 49.6855 234.922C49.8783 234.922 50.0996 234.945 50.3496 234.992C50.6022 235.036 50.8457 235.129 51.0801 235.27C51.3171 235.41 51.5137 235.622 51.6699 235.906C51.8262 236.19 51.9043 236.57 51.9043 237.047V241H50.9824V240.187H50.9355C50.873 240.318 50.7689 240.457 50.623 240.605C50.4772 240.754 50.2832 240.88 50.041 240.984C49.7988 241.089 49.5033 241.141 49.1543 241.141ZM49.2949 240.312C49.6595 240.312 49.9668 240.241 50.2168 240.098C50.4694 239.954 50.6595 239.77 50.7871 239.543C50.9173 239.316 50.9824 239.078 50.9824 238.828V237.984C50.9434 238.031 50.8574 238.074 50.7246 238.113C50.5944 238.15 50.4434 238.182 50.2715 238.211C50.1022 238.237 49.9368 238.26 49.7754 238.281C49.6165 238.299 49.4876 238.315 49.3887 238.328C49.1491 238.359 48.9251 238.41 48.7168 238.48C48.5111 238.548 48.3444 238.651 48.2168 238.789C48.0918 238.924 48.0293 239.109 48.0293 239.344C48.0293 239.664 48.1478 239.906 48.3848 240.07C48.6243 240.232 48.9277 240.312 49.2949 240.312ZM54.5088 233V241H53.5869V233H54.5088ZM58.8066 235V235.781H55.6973V235H58.8066ZM56.6035 233.562H57.5254V239.281C57.5254 239.542 57.5632 239.737 57.6387 239.867C57.7168 239.995 57.8158 240.081 57.9355 240.125C58.0579 240.167 58.1868 240.187 58.3223 240.187C58.4238 240.187 58.5072 240.182 58.5723 240.172C58.6374 240.159 58.6895 240.148 58.7285 240.141L58.916 240.969C58.8535 240.992 58.7663 241.016 58.6543 241.039C58.5423 241.065 58.4004 241.078 58.2285 241.078C57.9681 241.078 57.7129 241.022 57.4629 240.91C57.2155 240.798 57.0098 240.628 56.8457 240.398C56.6842 240.169 56.6035 239.88 56.6035 239.531V233.562ZM61.2441 237.391V241H60.3223V233H61.2441V235.937H61.3223C61.4629 235.628 61.6738 235.382 61.9551 235.199C62.2389 235.014 62.6165 234.922 63.0879 234.922C63.4967 234.922 63.8548 235.004 64.1621 235.168C64.4694 235.329 64.7077 235.578 64.877 235.914C65.0488 236.247 65.1348 236.672 65.1348 237.188V241H64.2129V237.25C64.2129 236.773 64.0892 236.405 63.8418 236.145C63.597 235.882 63.2572 235.75 62.8223 235.75C62.5202 235.75 62.2493 235.814 62.0098 235.941C61.7728 236.069 61.5853 236.255 61.4473 236.5C61.3118 236.745 61.2441 237.042 61.2441 237.391ZM71.6807 241.141C71.3005 241.141 70.9554 241.069 70.6455 240.926C70.3356 240.78 70.0895 240.57 69.9072 240.297C69.7249 240.021 69.6338 239.687 69.6338 239.297C69.6338 238.953 69.7015 238.674 69.8369 238.461C69.9723 238.245 70.1533 238.076 70.3799 237.953C70.6064 237.831 70.8564 237.74 71.1299 237.68C71.4059 237.617 71.6833 237.568 71.9619 237.531C72.3265 237.484 72.6221 237.449 72.8486 237.426C73.0778 237.4 73.2445 237.357 73.3486 237.297C73.4554 237.237 73.5088 237.133 73.5088 236.984V236.953C73.5088 236.568 73.4033 236.268 73.1924 236.055C72.984 235.841 72.6676 235.734 72.2432 235.734C71.8031 235.734 71.458 235.831 71.208 236.023C70.958 236.216 70.7822 236.422 70.6807 236.641L69.8057 236.328C69.9619 235.964 70.1702 235.68 70.4307 235.477C70.6937 235.271 70.9801 235.128 71.29 235.047C71.6025 234.964 71.9098 234.922 72.2119 234.922C72.4046 234.922 72.626 234.945 72.876 234.992C73.1286 235.036 73.3721 235.129 73.6064 235.27C73.8434 235.41 74.04 235.622 74.1963 235.906C74.3525 236.19 74.4307 236.57 74.4307 237.047V241H73.5088V240.187H73.4619C73.3994 240.318 73.2952 240.457 73.1494 240.605C73.0036 240.754 72.8096 240.88 72.5674 240.984C72.3252 241.089 72.0296 241.141 71.6807 241.141ZM71.8213 240.312C72.1859 240.312 72.4932 240.241 72.7432 240.098C72.9958 239.954 73.1859 239.77 73.3135 239.543C73.4437 239.316 73.5088 239.078 73.5088 238.828V237.984C73.4697 238.031 73.3838 238.074 73.251 238.113C73.1208 238.15 72.9697 238.182 72.7979 238.211C72.6286 238.237 72.4632 238.26 72.3018 238.281C72.1429 238.299 72.014 238.315 71.915 238.328C71.6755 238.359 71.4515 238.41 71.2432 238.48C71.0374 238.548 70.8708 238.651 70.7432 238.789C70.6182 238.924 70.5557 239.109 70.5557 239.344C70.5557 239.664 70.6742 239.906 70.9111 240.07C71.1507 240.232 71.4541 240.312 71.8213 240.312ZM77.0352 237.391V241H76.1133V235H77.0039V235.937H77.082C77.2227 235.633 77.4362 235.388 77.7227 235.203C78.0091 235.016 78.3789 234.922 78.832 234.922C79.2383 234.922 79.5938 235.005 79.8984 235.172C80.2031 235.336 80.4401 235.586 80.6094 235.922C80.7786 236.255 80.8633 236.677 80.8633 237.188V241H79.9414V237.25C79.9414 236.779 79.819 236.411 79.5742 236.148C79.3294 235.883 78.9935 235.75 78.5664 235.75C78.2721 235.75 78.0091 235.814 77.7773 235.941C77.5482 236.069 77.3672 236.255 77.2344 236.5C77.1016 236.745 77.0352 237.042 77.0352 237.391ZM84.8135 241.125C84.3135 241.125 83.8721 240.999 83.4893 240.746C83.1064 240.491 82.807 240.132 82.5908 239.668C82.3747 239.202 82.2666 238.651 82.2666 238.016C82.2666 237.385 82.3747 236.839 82.5908 236.375C82.807 235.911 83.1077 235.553 83.4932 235.301C83.8786 235.048 84.3239 234.922 84.8291 234.922C85.2197 234.922 85.5283 234.987 85.7549 235.117C85.984 235.245 86.1585 235.391 86.2783 235.555C86.4007 235.716 86.4958 235.849 86.5635 235.953H86.6416V233H87.5635V241H86.6729V240.078H86.5635C86.4958 240.187 86.3994 240.326 86.2744 240.492C86.1494 240.656 85.971 240.803 85.7393 240.934C85.5075 241.061 85.1989 241.125 84.8135 241.125ZM84.9385 240.297C85.3083 240.297 85.6208 240.201 85.876 240.008C86.1312 239.812 86.3252 239.543 86.458 239.199C86.5908 238.853 86.6572 238.453 86.6572 238C86.6572 237.552 86.5921 237.16 86.4619 236.824C86.3317 236.486 86.139 236.223 85.8838 236.035C85.6286 235.845 85.3135 235.75 84.9385 235.75C84.5479 235.75 84.2223 235.85 83.9619 236.051C83.7041 236.249 83.5101 236.518 83.3799 236.859C83.2523 237.198 83.1885 237.578 83.1885 238C83.1885 238.427 83.2536 238.815 83.3838 239.164C83.5166 239.51 83.7119 239.786 83.9697 239.992C84.2301 240.195 84.5531 240.297 84.9385 240.297ZM96.7236 236.344L95.8955 236.578C95.8434 236.44 95.7666 236.306 95.665 236.176C95.5661 236.043 95.4307 235.934 95.2588 235.848C95.0869 235.762 94.8669 235.719 94.5986 235.719C94.2314 235.719 93.9255 235.803 93.6807 235.973C93.4385 236.139 93.3174 236.352 93.3174 236.609C93.3174 236.839 93.4007 237.02 93.5674 237.152C93.734 237.285 93.9945 237.396 94.3486 237.484L95.2393 237.703C95.7757 237.833 96.1755 238.033 96.4385 238.301C96.7015 238.566 96.833 238.909 96.833 239.328C96.833 239.672 96.734 239.979 96.5361 240.25C96.3408 240.521 96.0674 240.734 95.7158 240.891C95.3643 241.047 94.9554 241.125 94.4893 241.125C93.8773 241.125 93.3708 240.992 92.9697 240.727C92.5687 240.461 92.3148 240.073 92.208 239.562L93.083 239.344C93.1663 239.667 93.3239 239.909 93.5557 240.07C93.79 240.232 94.096 240.312 94.4736 240.312C94.9033 240.312 95.2445 240.221 95.4971 240.039C95.7523 239.854 95.8799 239.633 95.8799 239.375C95.8799 239.167 95.807 238.992 95.6611 238.852C95.5153 238.708 95.2913 238.602 94.9893 238.531L93.9893 238.297C93.4398 238.167 93.0361 237.965 92.7783 237.691C92.5231 237.415 92.3955 237.07 92.3955 236.656C92.3955 236.318 92.4906 236.018 92.6807 235.758C92.8734 235.497 93.1351 235.293 93.4658 235.145C93.7992 234.996 94.1768 234.922 94.5986 234.922C95.1924 234.922 95.6585 235.052 95.9971 235.312C96.3382 235.573 96.5804 235.917 96.7236 236.344ZM99.9863 241.141C99.6061 241.141 99.2611 241.069 98.9512 240.926C98.6413 240.78 98.3952 240.57 98.2129 240.297C98.0306 240.021 97.9395 239.687 97.9395 239.297C97.9395 238.953 98.0072 238.674 98.1426 238.461C98.278 238.245 98.459 238.076 98.6855 237.953C98.9121 237.831 99.1621 237.74 99.4355 237.68C99.7116 237.617 99.9889 237.568 100.268 237.531C100.632 237.484 100.928 237.449 101.154 237.426C101.383 237.4 101.55 237.357 101.654 237.297C101.761 237.237 101.814 237.133 101.814 236.984V236.953C101.814 236.568 101.709 236.268 101.498 236.055C101.29 235.841 100.973 235.734 100.549 235.734C100.109 235.734 99.7637 235.831 99.5137 236.023C99.2637 236.216 99.0879 236.422 98.9863 236.641L98.1113 236.328C98.2676 235.964 98.4759 235.68 98.7363 235.477C98.9993 235.271 99.2858 235.128 99.5957 235.047C99.9082 234.964 100.215 234.922 100.518 234.922C100.71 234.922 100.932 234.945 101.182 234.992C101.434 235.036 101.678 235.129 101.912 235.27C102.149 235.41 102.346 235.622 102.502 235.906C102.658 236.19 102.736 236.57 102.736 237.047V241H101.814V240.187H101.768C101.705 240.318 101.601 240.457 101.455 240.605C101.309 240.754 101.115 240.88 100.873 240.984C100.631 241.089 100.335 241.141 99.9863 241.141ZM100.127 240.312C100.492 240.312 100.799 240.241 101.049 240.098C101.301 239.954 101.492 239.77 101.619 239.543C101.749 239.316 101.814 239.078 101.814 238.828V237.984C101.775 238.031 101.689 238.074 101.557 238.113C101.426 238.15 101.275 238.182 101.104 238.211C100.934 238.237 100.769 238.26 100.607 238.281C100.449 238.299 100.32 238.315 100.221 238.328C99.9811 238.359 99.7572 238.41 99.5488 238.48C99.3431 238.548 99.1764 238.651 99.0488 238.789C98.9238 238.924 98.8613 239.109 98.8613 239.344C98.8613 239.664 98.9798 239.906 99.2168 240.07C99.4564 240.232 99.7598 240.312 100.127 240.312ZM107.091 235V235.781H103.856V235H107.091ZM104.825 241V234.172C104.825 233.828 104.906 233.542 105.067 233.312C105.229 233.083 105.438 232.911 105.696 232.797C105.954 232.682 106.226 232.625 106.513 232.625C106.739 232.625 106.924 232.643 107.067 232.68C107.211 232.716 107.317 232.75 107.388 232.781L107.122 233.578C107.075 233.562 107.01 233.543 106.927 233.52C106.846 233.496 106.739 233.484 106.606 233.484C106.302 233.484 106.082 233.561 105.946 233.715C105.813 233.868 105.747 234.094 105.747 234.391V241H104.825ZM110.651 241.125C110.073 241.125 109.575 240.997 109.155 240.742C108.739 240.484 108.417 240.125 108.19 239.664C107.966 239.201 107.854 238.661 107.854 238.047C107.854 237.432 107.966 236.891 108.19 236.422C108.417 235.951 108.732 235.583 109.136 235.32C109.542 235.055 110.016 234.922 110.558 234.922C110.87 234.922 111.179 234.974 111.483 235.078C111.788 235.182 112.065 235.352 112.315 235.586C112.565 235.818 112.765 236.125 112.913 236.508C113.062 236.891 113.136 237.362 113.136 237.922V238.312H108.511V237.516H112.198C112.198 237.177 112.131 236.875 111.995 236.609C111.862 236.344 111.672 236.134 111.425 235.98C111.18 235.827 110.891 235.75 110.558 235.75C110.19 235.75 109.873 235.841 109.604 236.023C109.339 236.203 109.134 236.437 108.991 236.727C108.848 237.016 108.776 237.326 108.776 237.656V238.188C108.776 238.641 108.854 239.025 109.011 239.34C109.17 239.652 109.39 239.891 109.671 240.055C109.952 240.216 110.279 240.297 110.651 240.297C110.894 240.297 111.112 240.263 111.308 240.195C111.506 240.125 111.676 240.021 111.819 239.883C111.963 239.742 112.073 239.568 112.151 239.359L113.042 239.609C112.948 239.911 112.791 240.177 112.569 240.406C112.348 240.633 112.075 240.81 111.749 240.937C111.424 241.063 111.058 241.125 110.651 241.125ZM117.147 235V235.781H114.038V235H117.147ZM114.944 233.562H115.866V239.281C115.866 239.542 115.904 239.737 115.979 239.867C116.058 239.995 116.157 240.081 116.276 240.125C116.399 240.167 116.528 240.187 116.663 240.187C116.765 240.187 116.848 240.182 116.913 240.172C116.978 240.159 117.03 240.148 117.069 240.141L117.257 240.969C117.194 240.992 117.107 241.016 116.995 241.039C116.883 241.065 116.741 241.078 116.569 241.078C116.309 241.078 116.054 241.022 115.804 240.91C115.556 240.798 115.351 240.628 115.187 240.398C115.025 240.169 114.944 239.88 114.944 239.531V233.562ZM119.128 243.25C118.972 243.25 118.832 243.237 118.71 243.211C118.588 243.188 118.503 243.164 118.456 243.141L118.69 242.328C118.914 242.385 119.112 242.406 119.284 242.391C119.456 242.375 119.608 242.298 119.741 242.16C119.877 242.025 120 241.805 120.112 241.5L120.284 241.031L118.065 235H119.065L120.722 239.781H120.784L122.44 235H123.44L120.894 241.875C120.779 242.185 120.637 242.441 120.468 242.645C120.299 242.85 120.102 243.003 119.878 243.102C119.657 243.201 119.407 243.25 119.128 243.25Z" fill="black"/>
<path opacity="0.7" d="M259.965 241L263.281 234.437V234.383H259.418V233H265.031V234.402L261.711 241H259.965ZM266.19 241V239.781L269.038 237.145C269.28 236.91 269.483 236.699 269.647 236.512C269.814 236.324 269.94 236.141 270.026 235.961C270.112 235.779 270.155 235.582 270.155 235.371C270.155 235.137 270.102 234.935 269.995 234.766C269.888 234.594 269.743 234.462 269.558 234.371C269.373 234.277 269.163 234.23 268.929 234.23C268.684 234.23 268.47 234.28 268.288 234.379C268.106 234.478 267.965 234.62 267.866 234.805C267.767 234.99 267.718 235.21 267.718 235.465H266.112C266.112 234.941 266.231 234.487 266.468 234.102C266.705 233.716 267.037 233.418 267.464 233.207C267.891 232.996 268.383 232.891 268.94 232.891C269.513 232.891 270.012 232.992 270.437 233.195C270.864 233.396 271.196 233.674 271.433 234.031C271.67 234.388 271.788 234.797 271.788 235.258C271.788 235.56 271.728 235.858 271.608 236.152C271.491 236.447 271.282 236.773 270.979 237.133C270.677 237.49 270.252 237.918 269.702 238.418L268.534 239.562V239.617H271.894V241H266.19ZM277.498 239.5V239.078C277.498 238.758 277.566 238.464 277.701 238.195C277.839 237.924 278.038 237.708 278.299 237.547C278.562 237.383 278.882 237.301 279.26 237.301C279.643 237.301 279.964 237.382 280.225 237.543C280.488 237.704 280.686 237.921 280.818 238.191C280.954 238.46 281.021 238.755 281.021 239.078V239.5C281.021 239.82 280.954 240.116 280.818 240.387C280.683 240.655 280.484 240.87 280.221 241.031C279.958 241.195 279.637 241.277 279.26 241.277C278.877 241.277 278.555 241.195 278.295 241.031C278.035 240.87 277.837 240.655 277.701 240.387C277.566 240.116 277.498 239.82 277.498 239.5ZM278.635 239.078V239.5C278.635 239.685 278.679 239.859 278.768 240.023C278.859 240.187 279.023 240.27 279.26 240.27C279.497 240.27 279.658 240.189 279.744 240.027C279.833 239.866 279.877 239.69 279.877 239.5V239.078C279.877 238.888 279.835 238.711 279.752 238.547C279.669 238.383 279.505 238.301 279.26 238.301C279.025 238.301 278.863 238.383 278.771 238.547C278.68 238.711 278.635 238.888 278.635 239.078ZM273.393 234.922V234.5C273.393 234.177 273.462 233.882 273.6 233.613C273.738 233.342 273.937 233.126 274.197 232.965C274.46 232.803 274.778 232.723 275.15 232.723C275.536 232.723 275.859 232.803 276.119 232.965C276.38 233.126 276.577 233.342 276.713 233.613C276.848 233.882 276.916 234.177 276.916 234.5V234.922C276.916 235.245 276.847 235.54 276.709 235.809C276.574 236.077 276.374 236.292 276.111 236.453C275.851 236.612 275.531 236.691 275.15 236.691C274.77 236.691 274.449 236.611 274.186 236.449C273.925 236.285 273.727 236.07 273.592 235.805C273.459 235.536 273.393 235.242 273.393 234.922ZM274.537 234.5V234.922C274.537 235.112 274.581 235.288 274.67 235.449C274.761 235.611 274.921 235.691 275.15 235.691C275.39 235.691 275.553 235.611 275.639 235.449C275.727 235.288 275.771 235.112 275.771 234.922V234.5C275.771 234.31 275.73 234.133 275.646 233.969C275.563 233.805 275.398 233.723 275.15 233.723C274.919 233.723 274.758 233.806 274.67 233.973C274.581 234.139 274.537 234.315 274.537 234.5ZM273.908 241L279.408 233H280.432L274.932 241H273.908Z" fill="black"/>
<path opacity="0.7" d="M262.543 265.891C262.954 265.891 263.35 265.96 263.73 266.098C264.113 266.236 264.454 266.456 264.754 266.758C265.056 267.06 265.294 267.461 265.469 267.961C265.646 268.458 265.736 269.069 265.738 269.793C265.738 270.473 265.661 271.079 265.508 271.613C265.357 272.145 265.139 272.596 264.855 272.969C264.572 273.341 264.229 273.625 263.828 273.82C263.427 274.013 262.979 274.109 262.484 274.109C261.951 274.109 261.479 274.007 261.07 273.801C260.661 273.592 260.332 273.31 260.082 272.953C259.835 272.594 259.685 272.19 259.633 271.742H261.301C261.366 272.034 261.503 272.26 261.711 272.422C261.919 272.581 262.177 272.66 262.484 272.66C263.005 272.66 263.401 272.434 263.672 271.98C263.943 271.525 264.079 270.901 264.082 270.109H264.027C263.908 270.344 263.746 270.546 263.543 270.715C263.34 270.882 263.107 271.01 262.844 271.102C262.583 271.193 262.306 271.238 262.012 271.238C261.54 271.238 261.12 271.128 260.75 270.906C260.38 270.685 260.089 270.38 259.875 269.992C259.661 269.604 259.555 269.161 259.555 268.664C259.552 268.128 259.676 267.65 259.926 267.23C260.176 266.811 260.525 266.483 260.973 266.246C261.423 266.007 261.947 265.888 262.543 265.891ZM262.555 267.219C262.292 267.219 262.057 267.281 261.852 267.406C261.648 267.531 261.487 267.699 261.367 267.91C261.25 268.121 261.193 268.357 261.195 268.617C261.195 268.88 261.253 269.117 261.367 269.328C261.484 269.536 261.643 269.703 261.844 269.828C262.047 269.951 262.279 270.012 262.539 270.012C262.734 270.012 262.915 269.975 263.082 269.902C263.249 269.829 263.393 269.729 263.516 269.602C263.641 269.471 263.738 269.322 263.809 269.152C263.879 268.983 263.914 268.803 263.914 268.613C263.911 268.361 263.852 268.129 263.734 267.918C263.617 267.707 263.456 267.538 263.25 267.41C263.044 267.283 262.812 267.219 262.555 267.219ZM269.867 274.109C269.284 274.109 268.764 274.009 268.309 273.809C267.855 273.605 267.497 273.327 267.234 272.973C266.974 272.616 266.84 272.204 266.832 271.738H268.535C268.546 271.934 268.609 272.105 268.727 272.254C268.846 272.4 269.005 272.513 269.203 272.594C269.401 272.674 269.624 272.715 269.871 272.715C270.129 272.715 270.357 272.669 270.555 272.578C270.753 272.487 270.908 272.361 271.02 272.199C271.132 272.038 271.188 271.852 271.188 271.641C271.188 271.427 271.128 271.238 271.008 271.074C270.891 270.908 270.721 270.777 270.5 270.684C270.281 270.59 270.021 270.543 269.719 270.543H268.973V269.301H269.719C269.974 269.301 270.199 269.257 270.395 269.168C270.592 269.079 270.746 268.957 270.855 268.801C270.965 268.642 271.02 268.457 271.02 268.246C271.02 268.046 270.971 267.87 270.875 267.719C270.781 267.565 270.648 267.445 270.477 267.359C270.307 267.273 270.109 267.23 269.883 267.23C269.654 267.23 269.444 267.272 269.254 267.355C269.064 267.436 268.911 267.552 268.797 267.703C268.682 267.854 268.621 268.031 268.613 268.234H266.992C267 267.773 267.132 267.367 267.387 267.016C267.642 266.664 267.986 266.389 268.418 266.191C268.853 265.991 269.344 265.891 269.891 265.891C270.443 265.891 270.926 265.991 271.34 266.191C271.754 266.392 272.076 266.663 272.305 267.004C272.536 267.342 272.651 267.723 272.648 268.145C272.651 268.592 272.512 268.966 272.23 269.266C271.952 269.565 271.589 269.755 271.141 269.836V269.898C271.729 269.974 272.177 270.178 272.484 270.512C272.794 270.842 272.948 271.257 272.945 271.754C272.948 272.21 272.816 272.615 272.551 272.969C272.288 273.323 271.924 273.602 271.461 273.805C270.997 274.008 270.466 274.109 269.867 274.109ZM278.54 272.5V272.078C278.54 271.758 278.608 271.464 278.743 271.195C278.881 270.924 279.08 270.708 279.341 270.547C279.604 270.383 279.924 270.301 280.302 270.301C280.685 270.301 281.006 270.382 281.267 270.543C281.53 270.704 281.728 270.921 281.86 271.191C281.996 271.46 282.063 271.755 282.063 272.078V272.5C282.063 272.82 281.996 273.116 281.86 273.387C281.725 273.655 281.526 273.87 281.263 274.031C281 274.195 280.679 274.277 280.302 274.277C279.919 274.277 279.597 274.195 279.337 274.031C279.076 273.87 278.879 273.655 278.743 273.387C278.608 273.116 278.54 272.82 278.54 272.5ZM279.677 272.078V272.5C279.677 272.685 279.721 272.859 279.81 273.023C279.901 273.187 280.065 273.27 280.302 273.27C280.539 273.27 280.7 273.189 280.786 273.027C280.875 272.866 280.919 272.69 280.919 272.5V272.078C280.919 271.888 280.877 271.711 280.794 271.547C280.711 271.383 280.547 271.301 280.302 271.301C280.067 271.301 279.905 271.383 279.813 271.547C279.722 271.711 279.677 271.888 279.677 272.078ZM274.435 267.922V267.5C274.435 267.177 274.504 266.882 274.642 266.613C274.78 266.342 274.979 266.126 275.239 265.965C275.502 265.803 275.82 265.723 276.192 265.723C276.578 265.723 276.901 265.803 277.161 265.965C277.422 266.126 277.619 266.342 277.755 266.613C277.89 266.882 277.958 267.177 277.958 267.5V267.922C277.958 268.245 277.889 268.54 277.751 268.809C277.616 269.077 277.416 269.292 277.153 269.453C276.893 269.612 276.573 269.691 276.192 269.691C275.812 269.691 275.491 269.611 275.228 269.449C274.967 269.285 274.769 269.07 274.634 268.805C274.501 268.536 274.435 268.242 274.435 267.922ZM275.579 267.5V267.922C275.579 268.112 275.623 268.288 275.712 268.449C275.803 268.611 275.963 268.691 276.192 268.691C276.432 268.691 276.595 268.611 276.681 268.449C276.769 268.288 276.813 268.112 276.813 267.922V267.5C276.813 267.31 276.772 267.133 276.688 266.969C276.605 266.805 276.44 266.723 276.192 266.723C275.961 266.723 275.8 266.806 275.712 266.973C275.623 267.139 275.579 267.315 275.579 267.5ZM274.95 274L280.45 266H281.474L275.974 274H274.95Z" fill="black"/>
<path opacity="0.7" d="M263.129 299V307H261.438V300.605H261.391L259.559 301.754V300.254L261.539 299H263.129ZM268.167 307.176C267.495 307.173 266.917 307.008 266.433 306.68C265.951 306.352 265.58 305.876 265.319 305.254C265.062 304.632 264.934 303.883 264.937 303.008C264.937 302.135 265.065 301.392 265.323 300.777C265.584 300.163 265.955 299.695 266.437 299.375C266.921 299.052 267.498 298.891 268.167 298.891C268.836 298.891 269.412 299.052 269.894 299.375C270.378 299.698 270.75 300.167 271.011 300.781C271.271 301.393 271.4 302.135 271.397 303.008C271.397 303.885 271.267 304.635 271.007 305.258C270.749 305.88 270.379 306.355 269.897 306.684C269.416 307.012 268.839 307.176 268.167 307.176ZM268.167 305.773C268.625 305.773 268.991 305.543 269.265 305.082C269.538 304.621 269.674 303.93 269.671 303.008C269.671 302.401 269.608 301.896 269.483 301.492C269.361 301.089 269.187 300.785 268.96 300.582C268.736 300.379 268.472 300.277 268.167 300.277C267.711 300.277 267.347 300.505 267.073 300.961C266.8 301.417 266.662 302.099 266.659 303.008C266.659 303.622 266.72 304.135 266.843 304.547C266.968 304.956 267.144 305.263 267.37 305.469C267.597 305.672 267.862 305.773 268.167 305.773ZM275.74 307.176C275.068 307.173 274.49 307.008 274.006 306.68C273.524 306.352 273.153 305.876 272.893 305.254C272.635 304.632 272.507 303.883 272.51 303.008C272.51 302.135 272.639 301.392 272.896 300.777C273.157 300.163 273.528 299.695 274.01 299.375C274.494 299.052 275.071 298.891 275.74 298.891C276.41 298.891 276.985 299.052 277.467 299.375C277.951 299.698 278.324 300.167 278.584 300.781C278.844 301.393 278.973 302.135 278.971 303.008C278.971 303.885 278.84 304.635 278.58 305.258C278.322 305.88 277.952 306.355 277.471 306.684C276.989 307.012 276.412 307.176 275.74 307.176ZM275.74 305.773C276.199 305.773 276.564 305.543 276.838 305.082C277.111 304.621 277.247 303.93 277.244 303.008C277.244 302.401 277.182 301.896 277.057 301.492C276.934 301.089 276.76 300.785 276.533 300.582C276.309 300.379 276.045 300.277 275.74 300.277C275.285 300.277 274.92 300.505 274.646 300.961C274.373 301.417 274.235 302.099 274.232 303.008C274.232 303.622 274.294 304.135 274.416 304.547C274.541 304.956 274.717 305.263 274.943 305.469C275.17 305.672 275.436 305.773 275.74 305.773ZM284.556 305.5V305.078C284.556 304.758 284.623 304.464 284.759 304.195C284.897 303.924 285.096 303.708 285.356 303.547C285.619 303.383 285.94 303.301 286.317 303.301C286.7 303.301 287.022 303.382 287.282 303.543C287.545 303.704 287.743 303.921 287.876 304.191C288.011 304.46 288.079 304.755 288.079 305.078V305.5C288.079 305.82 288.011 306.116 287.876 306.387C287.741 306.655 287.541 306.87 287.278 307.031C287.015 307.195 286.695 307.277 286.317 307.277C285.935 307.277 285.613 307.195 285.353 307.031C285.092 306.87 284.894 306.655 284.759 306.387C284.623 306.116 284.556 305.82 284.556 305.5ZM285.692 305.078V305.5C285.692 305.685 285.737 305.859 285.825 306.023C285.916 306.187 286.08 306.27 286.317 306.27C286.554 306.27 286.716 306.189 286.802 306.027C286.89 305.866 286.935 305.69 286.935 305.5V305.078C286.935 304.888 286.893 304.711 286.81 304.547C286.726 304.383 286.562 304.301 286.317 304.301C286.083 304.301 285.92 304.383 285.829 304.547C285.738 304.711 285.692 304.888 285.692 305.078ZM280.45 300.922V300.5C280.45 300.177 280.519 299.882 280.657 299.613C280.795 299.342 280.994 299.126 281.255 298.965C281.518 298.803 281.836 298.723 282.208 298.723C282.593 298.723 282.916 298.803 283.177 298.965C283.437 299.126 283.635 299.342 283.771 299.613C283.906 299.882 283.974 300.177 283.974 300.5V300.922C283.974 301.245 283.905 301.54 283.767 301.809C283.631 302.077 283.432 302.292 283.169 302.453C282.909 302.612 282.588 302.691 282.208 302.691C281.828 302.691 281.506 302.611 281.243 302.449C280.983 302.285 280.785 302.07 280.649 301.805C280.517 301.536 280.45 301.242 280.45 300.922ZM281.595 300.5V300.922C281.595 301.112 281.639 301.288 281.728 301.449C281.819 301.611 281.979 301.691 282.208 301.691C282.448 301.691 282.61 301.611 282.696 301.449C282.785 301.288 282.829 301.112 282.829 300.922V300.5C282.829 300.31 282.787 300.133 282.704 299.969C282.621 299.805 282.455 299.723 282.208 299.723C281.976 299.723 281.816 299.806 281.728 299.973C281.639 300.139 281.595 300.315 281.595 300.5ZM280.966 307L286.466 299H287.489L281.989 307H280.966Z" fill="black"/>
<rect x="175" y="234" width="71" height="7" rx="3.5" fill="#E9E9E9"/>
<rect x="175" y="234" width="52" height="7" rx="3.5" fill="#00A7DC"/>
<rect x="175" y="267" width="71" height="7" rx="3.5" fill="#E9E9E9"/>
<rect x="175" y="267" width="64" height="7" rx="3.5" fill="#00A7DC"/>
<rect x="175" y="300" width="71" height="7" rx="3.5" fill="#E9E9E9"/>
<rect x="175" y="300" width="71" height="7" rx="3.5" fill="#00A7DC"/>
<path opacity="0.7" d="M32.9688 274V266H37.7969V266.859H33.9375V269.562H37.5469V270.422H33.9375V273.141H37.8594V274H32.9688ZM40.1055 268L41.543 270.453L42.9805 268H44.043L42.1055 271L44.043 274H42.9805L41.543 271.672L40.1055 274H39.043L40.9492 271L39.043 268H40.1055ZM45.3584 274V268H46.2803V274H45.3584ZM45.8271 267C45.6475 267 45.4925 266.939 45.3623 266.816C45.2347 266.694 45.1709 266.547 45.1709 266.375C45.1709 266.203 45.2347 266.056 45.3623 265.934C45.4925 265.811 45.6475 265.75 45.8271 265.75C46.0068 265.75 46.1605 265.811 46.2881 265.934C46.4183 266.056 46.4834 266.203 46.4834 266.375C46.4834 266.547 46.4183 266.694 46.2881 266.816C46.1605 266.939 46.0068 267 45.8271 267ZM50.5781 268V268.781H47.4688V268H50.5781ZM48.375 266.562H49.2969V272.281C49.2969 272.542 49.3346 272.737 49.4102 272.867C49.4883 272.995 49.5872 273.081 49.707 273.125C49.8294 273.167 49.9583 273.187 50.0938 273.187C50.1953 273.187 50.2786 273.182 50.3438 273.172C50.4089 273.159 50.4609 273.148 50.5 273.141L50.6875 273.969C50.625 273.992 50.5378 274.016 50.4258 274.039C50.3138 274.065 50.1719 274.078 50 274.078C49.7396 274.078 49.4844 274.022 49.2344 273.91C48.987 273.798 48.7813 273.628 48.6172 273.398C48.4557 273.169 48.375 272.88 48.375 272.531V266.562ZM55.0586 276.25V268H55.9492V268.953H56.0586C56.1263 268.849 56.2201 268.716 56.3398 268.555C56.4622 268.391 56.6367 268.245 56.8633 268.117C57.0924 267.987 57.4023 267.922 57.793 267.922C58.2982 267.922 58.7435 268.048 59.1289 268.301C59.5143 268.553 59.8151 268.911 60.0313 269.375C60.2474 269.839 60.3555 270.385 60.3555 271.016C60.3555 271.651 60.2474 272.202 60.0313 272.668C59.8151 273.132 59.5156 273.491 59.1328 273.746C58.75 273.999 58.3086 274.125 57.8086 274.125C57.4232 274.125 57.1146 274.061 56.8828 273.934C56.651 273.803 56.4727 273.656 56.3477 273.492C56.2227 273.326 56.1263 273.187 56.0586 273.078H55.9805V276.25H55.0586ZM55.9648 271C55.9648 271.453 56.0312 271.853 56.1641 272.199C56.2969 272.543 56.4909 272.812 56.7461 273.008C57.0013 273.201 57.3138 273.297 57.6836 273.297C58.069 273.297 58.3906 273.195 58.6484 272.992C58.9089 272.786 59.1042 272.51 59.2344 272.164C59.3672 271.815 59.4336 271.427 59.4336 271C59.4336 270.578 59.3685 270.198 59.2383 269.859C59.1107 269.518 58.9167 269.249 58.6563 269.051C58.3984 268.85 58.0742 268.75 57.6836 268.75C57.3086 268.75 56.9935 268.845 56.7383 269.035C56.4831 269.223 56.2904 269.486 56.1602 269.824C56.0299 270.16 55.9648 270.552 55.9648 271ZM64.1992 274.125C63.6576 274.125 63.1823 273.996 62.7734 273.738C62.3672 273.48 62.0495 273.12 61.8203 272.656C61.5938 272.193 61.4805 271.651 61.4805 271.031C61.4805 270.406 61.5938 269.861 61.8203 269.395C62.0495 268.928 62.3672 268.566 62.7734 268.309C63.1823 268.051 63.6576 267.922 64.1992 267.922C64.7409 267.922 65.2148 268.051 65.6211 268.309C66.0299 268.566 66.3477 268.928 66.5742 269.395C66.8034 269.861 66.918 270.406 66.918 271.031C66.918 271.651 66.8034 272.193 66.5742 272.656C66.3477 273.12 66.0299 273.48 65.6211 273.738C65.2148 273.996 64.7409 274.125 64.1992 274.125ZM64.1992 273.297C64.6107 273.297 64.9492 273.191 65.2148 272.98C65.4805 272.77 65.6771 272.492 65.8047 272.148C65.9323 271.805 65.9961 271.432 65.9961 271.031C65.9961 270.63 65.9323 270.257 65.8047 269.91C65.6771 269.564 65.4805 269.284 65.2148 269.07C64.9492 268.857 64.6107 268.75 64.1992 268.75C63.7878 268.75 63.4492 268.857 63.1836 269.07C62.918 269.284 62.7214 269.564 62.5938 269.91C62.4661 270.257 62.4023 270.63 62.4023 271.031C62.4023 271.432 62.4661 271.805 62.5938 272.148C62.7214 272.492 62.918 272.77 63.1836 272.98C63.4492 273.191 63.7878 273.297 64.1992 273.297ZM69.2471 266V274H68.3252V266H69.2471ZM70.9355 274V268H71.8574V274H70.9355ZM71.4043 267C71.2246 267 71.0697 266.939 70.9395 266.816C70.8118 266.694 70.748 266.547 70.748 266.375C70.748 266.203 70.8118 266.056 70.9395 265.934C71.0697 265.811 71.2246 265.75 71.4043 265.75C71.584 265.75 71.7376 265.811 71.8652 265.934C71.9954 266.056 72.0605 266.203 72.0605 266.375C72.0605 266.547 71.9954 266.694 71.8652 266.816C71.7376 266.939 71.584 267 71.4043 267ZM75.9834 274.125C75.4209 274.125 74.9365 273.992 74.5303 273.727C74.124 273.461 73.8115 273.095 73.5928 272.629C73.374 272.163 73.2646 271.63 73.2646 271.031C73.2646 270.422 73.3766 269.884 73.6006 269.418C73.8271 268.949 74.1423 268.583 74.5459 268.32C74.9521 268.055 75.4261 267.922 75.9678 267.922C76.3896 267.922 76.7699 268 77.1084 268.156C77.4469 268.312 77.7243 268.531 77.9404 268.812C78.1566 269.094 78.2907 269.422 78.3428 269.797H77.4209C77.3506 269.523 77.1943 269.281 76.9521 269.07C76.7126 268.857 76.3896 268.75 75.9834 268.75C75.624 268.75 75.3089 268.844 75.0381 269.031C74.7699 269.216 74.5602 269.478 74.4092 269.816C74.2607 270.152 74.1865 270.547 74.1865 271C74.1865 271.464 74.2594 271.867 74.4053 272.211C74.5537 272.555 74.762 272.822 75.0303 273.012C75.3011 273.202 75.6188 273.297 75.9834 273.297C76.223 273.297 76.4404 273.255 76.6357 273.172C76.8311 273.089 76.9964 272.969 77.1318 272.812C77.2673 272.656 77.3636 272.469 77.4209 272.25H78.3428C78.2907 272.604 78.1618 272.923 77.9561 273.207C77.7529 273.488 77.4834 273.712 77.1475 273.879C76.8141 274.043 76.4261 274.125 75.9834 274.125ZM79.6904 274V268H80.6123V274H79.6904ZM80.1592 267C79.9795 267 79.8245 266.939 79.6943 266.816C79.5667 266.694 79.5029 266.547 79.5029 266.375C79.5029 266.203 79.5667 266.056 79.6943 265.934C79.8245 265.811 79.9795 265.75 80.1592 265.75C80.3389 265.75 80.4925 265.811 80.6201 265.934C80.7503 266.056 80.8154 266.203 80.8154 266.375C80.8154 266.547 80.7503 266.694 80.6201 266.816C80.4925 266.939 80.3389 267 80.1592 267ZM84.8164 274.125C84.2383 274.125 83.7396 273.997 83.3203 273.742C82.9036 273.484 82.582 273.125 82.3555 272.664C82.1315 272.201 82.0195 271.661 82.0195 271.047C82.0195 270.432 82.1315 269.891 82.3555 269.422C82.582 268.951 82.8971 268.583 83.3008 268.32C83.707 268.055 84.181 267.922 84.7227 267.922C85.0352 267.922 85.3438 267.974 85.6484 268.078C85.9531 268.182 86.2305 268.352 86.4805 268.586C86.7305 268.818 86.9297 269.125 87.0781 269.508C87.2266 269.891 87.3008 270.362 87.3008 270.922V271.312H82.6758V270.516H86.3633C86.3633 270.177 86.2956 269.875 86.1602 269.609C86.0273 269.344 85.8372 269.134 85.5898 268.98C85.3451 268.827 85.056 268.75 84.7227 268.75C84.3555 268.75 84.0378 268.841 83.7695 269.023C83.5039 269.203 83.2995 269.437 83.1563 269.727C83.013 270.016 82.9414 270.326 82.9414 270.656V271.188C82.9414 271.641 83.0195 272.025 83.1758 272.34C83.3346 272.652 83.5547 272.891 83.8359 273.055C84.1172 273.216 84.444 273.297 84.8164 273.297C85.0586 273.297 85.2773 273.263 85.4727 273.195C85.6706 273.125 85.8411 273.021 85.9844 272.883C86.1276 272.742 86.2383 272.568 86.3164 272.359L87.207 272.609C87.1133 272.911 86.9557 273.177 86.7344 273.406C86.513 273.633 86.2396 273.81 85.9141 273.937C85.5885 274.063 85.2227 274.125 84.8164 274.125ZM92.9531 269.344L92.125 269.578C92.0729 269.44 91.9961 269.306 91.8945 269.176C91.7956 269.043 91.6602 268.934 91.4883 268.848C91.3164 268.762 91.0964 268.719 90.8281 268.719C90.4609 268.719 90.1549 268.803 89.9102 268.973C89.668 269.139 89.5469 269.352 89.5469 269.609C89.5469 269.839 89.6302 270.02 89.7969 270.152C89.9635 270.285 90.224 270.396 90.5781 270.484L91.4688 270.703C92.0052 270.833 92.4049 271.033 92.668 271.301C92.931 271.566 93.0625 271.909 93.0625 272.328C93.0625 272.672 92.9635 272.979 92.7656 273.25C92.5703 273.521 92.2969 273.734 91.9453 273.891C91.5938 274.047 91.1849 274.125 90.7188 274.125C90.1068 274.125 89.6003 273.992 89.1992 273.727C88.7982 273.461 88.5443 273.073 88.4375 272.562L89.3125 272.344C89.3958 272.667 89.5534 272.909 89.7852 273.07C90.0195 273.232 90.3255 273.312 90.7031 273.312C91.1328 273.312 91.474 273.221 91.7266 273.039C91.9818 272.854 92.1094 272.633 92.1094 272.375C92.1094 272.167 92.0365 271.992 91.8906 271.852C91.7448 271.708 91.5208 271.602 91.2188 271.531L90.2188 271.297C89.6693 271.167 89.2656 270.965 89.0078 270.691C88.7526 270.415 88.625 270.07 88.625 269.656C88.625 269.318 88.7201 269.018 88.9102 268.758C89.1029 268.497 89.3646 268.293 89.6953 268.145C90.0286 267.996 90.4063 267.922 90.8281 267.922C91.4219 267.922 91.888 268.052 92.2266 268.312C92.5677 268.573 92.8099 268.917 92.9531 269.344Z" fill="black"/>
<path opacity="0.7" d="M37.3438 301C37.2969 300.604 37.1068 300.297 36.7734 300.078C36.4401 299.859 36.0313 299.75 35.5469 299.75C35.1927 299.75 34.8828 299.807 34.6172 299.922C34.3542 300.036 34.1484 300.194 34 300.395C33.8542 300.595 33.7813 300.823 33.7813 301.078C33.7813 301.292 33.832 301.475 33.9336 301.629C34.0378 301.78 34.1706 301.906 34.332 302.008C34.4935 302.107 34.6628 302.189 34.8398 302.254C35.0169 302.316 35.1797 302.367 35.3281 302.406L36.1406 302.625C36.349 302.68 36.5807 302.755 36.8359 302.852C37.0938 302.948 37.3398 303.079 37.5742 303.246C37.8112 303.41 38.0065 303.621 38.1602 303.879C38.3138 304.137 38.3906 304.453 38.3906 304.828C38.3906 305.26 38.2773 305.651 38.0508 306C37.8268 306.349 37.4987 306.626 37.0664 306.832C36.6367 307.038 36.1146 307.141 35.5 307.141C34.9271 307.141 34.431 307.048 34.0117 306.863C33.5951 306.678 33.2669 306.421 33.0273 306.09C32.7904 305.759 32.6563 305.375 32.625 304.938H33.625C33.651 305.24 33.7526 305.49 33.9297 305.687C34.1094 305.883 34.3359 306.029 34.6094 306.125C34.8854 306.219 35.1823 306.266 35.5 306.266C35.8698 306.266 36.2018 306.206 36.4961 306.086C36.7904 305.964 37.0234 305.794 37.1953 305.578C37.3672 305.359 37.4531 305.104 37.4531 304.812C37.4531 304.547 37.3789 304.331 37.2305 304.164C37.082 303.997 36.8867 303.862 36.6445 303.758C36.4023 303.654 36.1406 303.562 35.8594 303.484L34.875 303.203C34.25 303.023 33.7552 302.767 33.3906 302.434C33.026 302.1 32.8438 301.664 32.8438 301.125C32.8438 300.677 32.9648 300.286 33.207 299.953C33.4518 299.617 33.7799 299.357 34.1914 299.172C34.6055 298.984 35.0677 298.891 35.5781 298.891C36.0938 298.891 36.5521 298.983 36.9531 299.168C37.3542 299.35 37.6719 299.6 37.9062 299.918C38.1432 300.236 38.2682 300.596 38.2813 301H37.3438ZM41.624 307.141C41.2438 307.141 40.8988 307.069 40.5889 306.926C40.279 306.78 40.0329 306.57 39.8506 306.297C39.6683 306.021 39.5771 305.687 39.5771 305.297C39.5771 304.953 39.6449 304.674 39.7803 304.461C39.9157 304.245 40.0967 304.076 40.3232 303.953C40.5498 303.831 40.7998 303.74 41.0732 303.68C41.3493 303.617 41.6266 303.568 41.9053 303.531C42.2699 303.484 42.5654 303.449 42.792 303.426C43.0212 303.4 43.1878 303.357 43.292 303.297C43.3988 303.237 43.4521 303.133 43.4521 302.984V302.953C43.4521 302.568 43.3467 302.268 43.1357 302.055C42.9274 301.841 42.611 301.734 42.1865 301.734C41.7464 301.734 41.4014 301.831 41.1514 302.023C40.9014 302.216 40.7256 302.422 40.624 302.641L39.749 302.328C39.9053 301.964 40.1136 301.68 40.374 301.477C40.637 301.271 40.9235 301.128 41.2334 301.047C41.5459 300.964 41.8532 300.922 42.1553 300.922C42.348 300.922 42.5693 300.945 42.8193 300.992C43.0719 301.036 43.3154 301.129 43.5498 301.27C43.7868 301.41 43.9834 301.622 44.1396 301.906C44.2959 302.19 44.374 302.57 44.374 303.047V307H43.4521V306.187H43.4053C43.3428 306.318 43.2386 306.457 43.0928 306.605C42.9469 306.754 42.7529 306.88 42.5107 306.984C42.2686 307.089 41.973 307.141 41.624 307.141ZM41.7646 306.312C42.1292 306.312 42.4365 306.241 42.6865 306.098C42.9391 305.954 43.1292 305.77 43.2568 305.543C43.387 305.316 43.4521 305.078 43.4521 304.828V303.984C43.4131 304.031 43.3271 304.074 43.1943 304.113C43.0641 304.15 42.9131 304.182 42.7412 304.211C42.5719 304.237 42.4066 304.26 42.2451 304.281C42.0863 304.299 41.9574 304.315 41.8584 304.328C41.6188 304.359 41.3949 304.41 41.1865 304.48C40.9808 304.548 40.8141 304.651 40.6865 304.789C40.5615 304.924 40.499 305.109 40.499 305.344C40.499 305.664 40.6175 305.906 40.8545 306.07C41.0941 306.232 41.3975 306.312 41.7646 306.312ZM46.9785 299V307H46.0566V299H46.9785ZM51.1826 307.125C50.6045 307.125 50.1058 306.997 49.6865 306.742C49.2699 306.484 48.9482 306.125 48.7217 305.664C48.4977 305.201 48.3857 304.661 48.3857 304.047C48.3857 303.432 48.4977 302.891 48.7217 302.422C48.9482 301.951 49.2633 301.583 49.667 301.32C50.0732 301.055 50.5472 300.922 51.0889 300.922C51.4014 300.922 51.71 300.974 52.0146 301.078C52.3193 301.182 52.5967 301.352 52.8467 301.586C53.0967 301.818 53.2959 302.125 53.4443 302.508C53.5928 302.891 53.667 303.362 53.667 303.922V304.312H49.042V303.516H52.7295C52.7295 303.177 52.6618 302.875 52.5264 302.609C52.3936 302.344 52.2035 302.134 51.9561 301.98C51.7113 301.827 51.4222 301.75 51.0889 301.75C50.7217 301.75 50.404 301.841 50.1357 302.023C49.8701 302.203 49.6657 302.437 49.5225 302.727C49.3792 303.016 49.3076 303.326 49.3076 303.656V304.188C49.3076 304.641 49.3857 305.025 49.542 305.34C49.7008 305.652 49.9209 305.891 50.2021 306.055C50.4834 306.216 50.8102 306.297 51.1826 306.297C51.4248 306.297 51.6436 306.263 51.8389 306.195C52.0368 306.125 52.2074 306.021 52.3506 305.883C52.4938 305.742 52.6045 305.568 52.6826 305.359L53.5732 305.609C53.4795 305.911 53.3219 306.177 53.1006 306.406C52.8792 306.633 52.6058 306.81 52.2803 306.937C51.9548 307.063 51.5889 307.125 51.1826 307.125ZM59.3193 302.344L58.4912 302.578C58.4391 302.44 58.3623 302.306 58.2607 302.176C58.1618 302.043 58.0264 301.934 57.8545 301.848C57.6826 301.762 57.4626 301.719 57.1943 301.719C56.8271 301.719 56.5212 301.803 56.2764 301.973C56.0342 302.139 55.9131 302.352 55.9131 302.609C55.9131 302.839 55.9964 303.02 56.1631 303.152C56.3298 303.285 56.5902 303.396 56.9443 303.484L57.835 303.703C58.3714 303.833 58.7712 304.033 59.0342 304.301C59.2972 304.566 59.4287 304.909 59.4287 305.328C59.4287 305.672 59.3298 305.979 59.1318 306.25C58.9365 306.521 58.6631 306.734 58.3115 306.891C57.96 307.047 57.5511 307.125 57.085 307.125C56.473 307.125 55.9665 306.992 55.5654 306.727C55.1644 306.461 54.9105 306.073 54.8037 305.562L55.6787 305.344C55.762 305.667 55.9196 305.909 56.1514 306.07C56.3857 306.232 56.6917 306.312 57.0693 306.312C57.499 306.312 57.8402 306.221 58.0928 306.039C58.348 305.854 58.4756 305.633 58.4756 305.375C58.4756 305.167 58.4027 304.992 58.2568 304.852C58.111 304.708 57.887 304.602 57.585 304.531L56.585 304.297C56.0355 304.167 55.6318 303.965 55.374 303.691C55.1188 303.415 54.9912 303.07 54.9912 302.656C54.9912 302.318 55.0863 302.018 55.2764 301.758C55.4691 301.497 55.7308 301.293 56.0615 301.145C56.3949 300.996 56.7725 300.922 57.1943 300.922C57.7881 300.922 58.2542 301.052 58.5928 301.312C58.9339 301.573 59.1761 301.917 59.3193 302.344Z" fill="black"/>
<path opacity="0.7" d="M39.7539 201.801H38.043C38.0117 201.579 37.9479 201.383 37.8516 201.211C37.7552 201.036 37.6315 200.888 37.4805 200.766C37.3294 200.643 37.1549 200.549 36.957 200.484C36.7617 200.419 36.5495 200.387 36.3203 200.387C35.9063 200.387 35.5456 200.49 35.2383 200.695C34.931 200.898 34.6927 201.195 34.5234 201.586C34.3542 201.974 34.2695 202.445 34.2695 203C34.2695 203.57 34.3542 204.049 34.5234 204.437C34.6953 204.826 34.9349 205.118 35.2422 205.316C35.5495 205.514 35.9049 205.613 36.3086 205.613C36.5352 205.613 36.7448 205.583 36.9375 205.523C37.1328 205.464 37.306 205.376 37.457 205.262C37.6081 205.145 37.7331 205.003 37.832 204.836C37.9336 204.669 38.0039 204.479 38.043 204.266L39.7539 204.273C39.7096 204.641 39.599 204.995 39.4219 205.336C39.2474 205.674 39.0117 205.978 38.7148 206.246C38.4206 206.512 38.069 206.723 37.6602 206.879C37.2539 207.033 36.7943 207.109 36.2813 207.109C35.5677 207.109 34.9297 206.948 34.3672 206.625C33.8073 206.302 33.3646 205.835 33.0391 205.223C32.7161 204.611 32.5547 203.87 32.5547 203C32.5547 202.128 32.7188 201.385 33.0469 200.773C33.375 200.161 33.8203 199.695 34.3828 199.375C34.9453 199.052 35.5781 198.891 36.2813 198.891C36.7448 198.891 37.1745 198.956 37.5703 199.086C37.9688 199.216 38.3216 199.406 38.6289 199.656C38.9362 199.904 39.1862 200.207 39.3789 200.566C39.5742 200.926 39.6992 201.337 39.7539 201.801ZM42.6465 207.113C42.2637 207.113 41.9225 207.047 41.623 206.914C41.3236 206.779 41.0866 206.579 40.9121 206.316C40.7402 206.051 40.6543 205.72 40.6543 205.324C40.6543 204.991 40.7155 204.711 40.8379 204.484C40.9603 204.258 41.127 204.076 41.3379 203.937C41.5488 203.799 41.7884 203.695 42.0566 203.625C42.3275 203.555 42.6113 203.505 42.9082 203.477C43.2572 203.44 43.5384 203.406 43.752 203.375C43.9655 203.341 44.1204 203.292 44.2168 203.227C44.3132 203.161 44.3613 203.065 44.3613 202.937V202.914C44.3613 202.667 44.2832 202.475 44.127 202.34C43.9733 202.204 43.7546 202.137 43.4707 202.137C43.1712 202.137 42.9329 202.203 42.7559 202.336C42.5788 202.466 42.4616 202.63 42.4043 202.828L40.8652 202.703C40.9434 202.339 41.097 202.023 41.3262 201.758C41.5553 201.49 41.8509 201.284 42.2129 201.141C42.5775 200.995 42.9993 200.922 43.4785 200.922C43.8118 200.922 44.1309 200.961 44.4355 201.039C44.7428 201.117 45.015 201.238 45.252 201.402C45.4915 201.566 45.6803 201.777 45.8184 202.035C45.9564 202.29 46.0254 202.596 46.0254 202.953V207H44.4473V206.168H44.4004C44.304 206.355 44.1751 206.521 44.0137 206.664C43.8522 206.805 43.6582 206.915 43.4316 206.996C43.2051 207.074 42.9434 207.113 42.6465 207.113ZM43.123 205.965C43.3678 205.965 43.584 205.917 43.7715 205.82C43.959 205.721 44.1061 205.589 44.2129 205.422C44.3197 205.255 44.373 205.066 44.373 204.855V204.219C44.321 204.253 44.2493 204.284 44.1582 204.312C44.0697 204.339 43.9694 204.363 43.8574 204.387C43.7454 204.408 43.6335 204.427 43.5215 204.445C43.4095 204.461 43.3079 204.475 43.2168 204.488C43.0215 204.517 42.8509 204.562 42.7051 204.625C42.5592 204.687 42.446 204.772 42.3652 204.879C42.2845 204.983 42.2441 205.113 42.2441 205.27C42.2441 205.496 42.3262 205.669 42.4902 205.789C42.6569 205.906 42.8678 205.965 43.123 205.965ZM50.5078 201V202.25H46.8945V201H50.5078ZM47.7148 199.562H49.3789V205.156C49.3789 205.31 49.4023 205.43 49.4492 205.516C49.4961 205.599 49.5612 205.658 49.6445 205.691C49.7305 205.725 49.8294 205.742 49.9414 205.742C50.0195 205.742 50.0977 205.736 50.1758 205.723C50.2539 205.707 50.3138 205.695 50.3555 205.687L50.6172 206.926C50.5339 206.952 50.4167 206.982 50.2656 207.016C50.1146 207.052 49.931 207.074 49.7148 207.082C49.3138 207.098 48.9622 207.044 48.6602 206.922C48.3607 206.799 48.1276 206.609 47.9609 206.352C47.7943 206.094 47.7122 205.768 47.7148 205.375V199.562ZM54.2617 207.117C53.6445 207.117 53.1133 206.992 52.668 206.742C52.2253 206.49 51.8841 206.133 51.6445 205.672C51.4049 205.208 51.2852 204.66 51.2852 204.027C51.2852 203.41 51.4049 202.868 51.6445 202.402C51.8841 201.936 52.2214 201.573 52.6563 201.312C53.0938 201.052 53.6068 200.922 54.1953 200.922C54.5911 200.922 54.9596 200.986 55.3008 201.113C55.6445 201.238 55.944 201.427 56.1992 201.68C56.457 201.932 56.6576 202.25 56.8008 202.633C56.944 203.013 57.0156 203.458 57.0156 203.969V204.426H51.9492V203.395H55.4492C55.4492 203.155 55.3971 202.943 55.293 202.758C55.1888 202.573 55.0443 202.428 54.8594 202.324C54.6771 202.217 54.4648 202.164 54.2227 202.164C53.9701 202.164 53.7461 202.223 53.5508 202.34C53.3581 202.454 53.207 202.609 53.0977 202.805C52.9883 202.997 52.9323 203.212 52.9297 203.449V204.43C52.9297 204.727 52.9844 204.983 53.0938 205.199C53.2057 205.415 53.3633 205.582 53.5664 205.699C53.7695 205.816 54.0104 205.875 54.2891 205.875C54.474 205.875 54.6432 205.849 54.7969 205.797C54.9505 205.745 55.082 205.667 55.1914 205.562C55.3008 205.458 55.3841 205.331 55.4414 205.18L56.9805 205.281C56.9023 205.651 56.7422 205.974 56.5 206.25C56.2604 206.523 55.9505 206.737 55.5703 206.891C55.1927 207.042 54.7565 207.117 54.2617 207.117ZM60.8047 209.375C60.2656 209.375 59.8034 209.301 59.418 209.152C59.0352 209.007 58.7305 208.807 58.5039 208.555C58.2773 208.302 58.1302 208.018 58.0625 207.703L59.6016 207.496C59.6484 207.616 59.7227 207.728 59.8242 207.832C59.9258 207.936 60.0599 208.02 60.2266 208.082C60.3958 208.147 60.6016 208.18 60.8438 208.18C61.2057 208.18 61.5039 208.091 61.7383 207.914C61.9753 207.74 62.0938 207.447 62.0938 207.035V205.937H62.0234C61.9505 206.104 61.8411 206.262 61.6953 206.41C61.5495 206.559 61.362 206.68 61.1328 206.773C60.9036 206.867 60.6302 206.914 60.3125 206.914C59.862 206.914 59.4518 206.81 59.082 206.602C58.7148 206.391 58.4219 206.069 58.2031 205.637C57.987 205.202 57.8789 204.652 57.8789 203.988C57.8789 203.309 57.9896 202.741 58.2109 202.285C58.4323 201.829 58.7266 201.488 59.0938 201.262C59.4635 201.035 59.8685 200.922 60.3086 200.922C60.6445 200.922 60.9258 200.979 61.1523 201.094C61.3789 201.206 61.5612 201.346 61.6992 201.516C61.8398 201.682 61.9479 201.846 62.0234 202.008H62.0859V201H63.7383V207.059C63.7383 207.569 63.6133 207.996 63.3633 208.34C63.1133 208.684 62.7669 208.941 62.3242 209.113C61.8841 209.288 61.3776 209.375 60.8047 209.375ZM60.8398 205.664C61.1081 205.664 61.3346 205.598 61.5195 205.465C61.707 205.329 61.8503 205.137 61.9492 204.887C62.0508 204.634 62.1016 204.332 62.1016 203.98C62.1016 203.629 62.0521 203.324 61.9531 203.066C61.8542 202.806 61.7109 202.604 61.5234 202.461C61.3359 202.318 61.1081 202.246 60.8398 202.246C60.5664 202.246 60.3359 202.32 60.1484 202.469C59.9609 202.615 59.819 202.818 59.7227 203.078C59.6263 203.339 59.5781 203.639 59.5781 203.98C59.5781 204.327 59.6263 204.626 59.7227 204.879C59.8216 205.129 59.9635 205.323 60.1484 205.461C60.3359 205.596 60.5664 205.664 60.8398 205.664ZM67.7734 207.117C67.1667 207.117 66.6419 206.988 66.1992 206.73C65.7591 206.47 65.4193 206.108 65.1797 205.645C64.9401 205.178 64.8203 204.638 64.8203 204.023C64.8203 203.404 64.9401 202.862 65.1797 202.398C65.4193 201.932 65.7591 201.57 66.1992 201.312C66.6419 201.052 67.1667 200.922 67.7734 200.922C68.3802 200.922 68.9036 201.052 69.3438 201.312C69.7865 201.57 70.1276 201.932 70.3672 202.398C70.6068 202.862 70.7266 203.404 70.7266 204.023C70.7266 204.638 70.6068 205.178 70.3672 205.645C70.1276 206.108 69.7865 206.47 69.3438 206.73C68.9036 206.988 68.3802 207.117 67.7734 207.117ZM67.7812 205.828C68.0573 205.828 68.2878 205.75 68.4727 205.594C68.6576 205.435 68.7969 205.219 68.8906 204.945C68.987 204.672 69.0352 204.361 69.0352 204.012C69.0352 203.663 68.987 203.352 68.8906 203.078C68.7969 202.805 68.6576 202.589 68.4727 202.43C68.2878 202.271 68.0573 202.191 67.7812 202.191C67.5026 202.191 67.2682 202.271 67.0781 202.43C66.8906 202.589 66.7487 202.805 66.6523 203.078C66.5586 203.352 66.5117 203.663 66.5117 204.012C66.5117 204.361 66.5586 204.672 66.6523 204.945C66.7487 205.219 66.8906 205.435 67.0781 205.594C67.2682 205.75 67.5026 205.828 67.7812 205.828ZM71.8086 207V201H73.4219V202.047H73.4844C73.5938 201.674 73.7773 201.393 74.0352 201.203C74.293 201.01 74.5898 200.914 74.9258 200.914C75.0091 200.914 75.099 200.919 75.1953 200.93C75.2917 200.94 75.3763 200.954 75.4492 200.973V202.449C75.3711 202.426 75.263 202.405 75.125 202.387C74.987 202.368 74.8607 202.359 74.7461 202.359C74.5013 202.359 74.2826 202.413 74.0898 202.52C73.8997 202.624 73.7487 202.77 73.6367 202.957C73.5273 203.145 73.4727 203.361 73.4727 203.605V207H71.8086ZM76.3096 207V201H77.9736V207H76.3096ZM77.1455 200.227C76.8981 200.227 76.6859 200.145 76.5088 199.98C76.3343 199.814 76.2471 199.615 76.2471 199.383C76.2471 199.154 76.3343 198.957 76.5088 198.793C76.6859 198.626 76.8981 198.543 77.1455 198.543C77.3929 198.543 77.6038 198.626 77.7783 198.793C77.9554 198.957 78.0439 199.154 78.0439 199.383C78.0439 199.615 77.9554 199.814 77.7783 199.98C77.6038 200.145 77.3929 200.227 77.1455 200.227ZM82.041 207.117C81.4238 207.117 80.8926 206.992 80.4473 206.742C80.0046 206.49 79.6634 206.133 79.4238 205.672C79.1842 205.208 79.0645 204.66 79.0645 204.027C79.0645 203.41 79.1842 202.868 79.4238 202.402C79.6634 201.936 80.0007 201.573 80.4355 201.312C80.873 201.052 81.3861 200.922 81.9746 200.922C82.3704 200.922 82.7389 200.986 83.0801 201.113C83.4238 201.238 83.7233 201.427 83.9785 201.68C84.2363 201.932 84.4368 202.25 84.5801 202.633C84.7233 203.013 84.7949 203.458 84.7949 203.969V204.426H79.7285V203.395H83.2285C83.2285 203.155 83.1764 202.943 83.0723 202.758C82.9681 202.573 82.8236 202.428 82.6387 202.324C82.4564 202.217 82.2441 202.164 82.002 202.164C81.7493 202.164 81.5254 202.223 81.3301 202.34C81.1374 202.454 80.9863 202.609 80.877 202.805C80.7676 202.997 80.7116 203.212 80.709 203.449V204.43C80.709 204.727 80.7637 204.983 80.873 205.199C80.985 205.415 81.1426 205.582 81.3457 205.699C81.5488 205.816 81.7897 205.875 82.0684 205.875C82.2533 205.875 82.4225 205.849 82.5762 205.797C82.7298 205.745 82.8613 205.667 82.9707 205.562C83.0801 205.458 83.1634 205.331 83.2207 205.18L84.7598 205.281C84.6816 205.651 84.5215 205.974 84.2793 206.25C84.0397 206.523 83.7298 206.737 83.3496 206.891C82.972 207.042 82.5358 207.117 82.041 207.117ZM90.873 202.711L89.3496 202.805C89.3236 202.674 89.2676 202.557 89.1816 202.453C89.0957 202.346 88.9824 202.262 88.8418 202.199C88.7038 202.134 88.5384 202.102 88.3457 202.102C88.0879 202.102 87.8704 202.156 87.6934 202.266C87.5163 202.372 87.4277 202.516 87.4277 202.695C87.4277 202.839 87.485 202.96 87.5996 203.059C87.7142 203.158 87.9108 203.237 88.1895 203.297L89.2754 203.516C89.8587 203.635 90.2936 203.828 90.5801 204.094C90.8665 204.359 91.0098 204.708 91.0098 205.141C91.0098 205.534 90.8939 205.879 90.6621 206.176C90.4329 206.473 90.1178 206.704 89.7168 206.871C89.3184 207.035 88.8587 207.117 88.3379 207.117C87.5436 207.117 86.9108 206.952 86.4395 206.621C85.9707 206.288 85.696 205.835 85.6152 205.262L87.252 205.176C87.3014 205.418 87.4212 205.603 87.6113 205.73C87.8014 205.855 88.0449 205.918 88.3418 205.918C88.6335 205.918 88.8678 205.862 89.0449 205.75C89.2246 205.635 89.3158 205.488 89.3184 205.309C89.3158 205.158 89.252 205.034 89.127 204.938C89.002 204.839 88.8092 204.763 88.5488 204.711L87.5098 204.504C86.9238 204.387 86.4876 204.184 86.2012 203.895C85.9173 203.605 85.7754 203.237 85.7754 202.789C85.7754 202.404 85.8796 202.072 86.0879 201.793C86.2988 201.514 86.5944 201.299 86.9746 201.148C87.3574 200.997 87.8053 200.922 88.3184 200.922C89.0762 200.922 89.6725 201.082 90.1074 201.402C90.5449 201.723 90.8001 202.159 90.873 202.711Z" fill="black"/>
<path d="M186.229 55.3381C184.369 55.3381 182.715 55.0362 181.266 54.4325C179.826 53.8208 178.695 52.9877 177.874 51.9332C177.053 50.8788 176.642 49.6835 176.642 48.3473C176.642 47.317 176.875 46.3712 177.342 45.5099C177.817 44.6406 178.461 43.9202 179.274 43.3487C180.087 42.7692 180.997 42.3989 182.003 42.2379V42.0689C180.683 41.8033 179.612 41.1634 178.791 40.1491C177.97 39.1269 177.56 37.9396 177.56 36.5874C177.56 35.3075 177.934 34.1686 178.683 33.1705C179.431 32.1643 180.457 31.3755 181.761 30.804C183.073 30.2244 184.562 29.9347 186.229 29.9347C187.895 29.9347 189.38 30.2244 190.684 30.804C191.996 31.3835 193.026 32.1764 193.775 33.1825C194.523 34.1806 194.902 35.3156 194.91 36.5874C194.902 37.9477 194.483 39.1349 193.654 40.1491C192.825 41.1634 191.763 41.8033 190.467 42.0689V42.2379C191.457 42.3989 192.354 42.7692 193.159 43.3487C193.972 43.9202 194.616 44.6406 195.091 45.5099C195.574 46.3712 195.819 47.317 195.827 48.3473C195.819 49.6835 195.405 50.8788 194.584 51.9332C193.763 52.9877 192.628 53.8208 191.179 54.4325C189.738 55.0362 188.088 55.3381 186.229 55.3381ZM186.229 51.4986C187.058 51.4986 187.782 51.3497 188.402 51.0518C189.022 50.746 189.505 50.3274 189.851 49.7962C190.205 49.2569 190.382 48.6371 190.382 47.9368C190.382 47.2204 190.201 46.5885 189.839 46.0412C189.477 45.4858 188.986 45.0511 188.366 44.7372C187.746 44.4152 187.034 44.2543 186.229 44.2543C185.432 44.2543 184.719 44.4152 184.092 44.7372C183.464 45.0511 182.969 45.4858 182.607 46.0412C182.252 46.5885 182.075 47.2204 182.075 47.9368C182.075 48.6371 182.248 49.2569 182.594 49.7962C182.941 50.3274 183.428 50.746 184.055 51.0518C184.683 51.3497 185.408 51.4986 186.229 51.4986ZM186.229 40.451C186.921 40.451 187.537 40.3101 188.076 40.0284C188.615 39.7467 189.038 39.3563 189.344 38.8572C189.65 38.3582 189.803 37.7827 189.803 37.1307C189.803 36.4867 189.65 35.9233 189.344 35.4403C189.038 34.9493 188.619 34.567 188.088 34.2933C187.557 34.0116 186.937 33.8707 186.229 33.8707C185.528 33.8707 184.909 34.0116 184.369 34.2933C183.83 34.567 183.407 34.9493 183.102 35.4403C182.804 35.9233 182.655 36.4867 182.655 37.1307C182.655 37.7827 182.808 38.3582 183.114 38.8572C183.42 39.3563 183.842 39.7467 184.381 40.0284C184.921 40.3101 185.536 40.451 186.229 40.451ZM207.138 55.5433C205.061 55.5353 203.274 55.0241 201.777 54.0099C200.288 52.9957 199.141 51.5268 198.336 49.603C197.539 47.6792 197.145 45.3651 197.153 42.6605C197.153 39.964 197.551 37.666 198.348 35.7663C199.153 33.8667 200.3 32.4219 201.789 31.4318C203.287 30.4337 205.069 29.9347 207.138 29.9347C209.207 29.9347 210.986 30.4337 212.475 31.4318C213.972 32.4299 215.123 33.8788 215.928 35.7784C216.733 37.67 217.131 39.964 217.123 42.6605C217.123 45.3731 216.721 47.6913 215.916 49.6151C215.119 51.5388 213.976 53.0078 212.487 54.022C210.998 55.0362 209.215 55.5433 207.138 55.5433ZM207.138 51.2088C208.555 51.2088 209.686 50.4964 210.531 49.0717C211.376 47.647 211.795 45.5099 211.787 42.6605C211.787 40.785 211.593 39.2235 211.207 37.9759C210.829 36.7282 210.289 35.7905 209.589 35.1626C208.897 34.5348 208.08 34.2209 207.138 34.2209C205.729 34.2209 204.603 34.9252 203.757 36.3338C202.912 37.7424 202.486 39.8513 202.478 42.6605C202.478 44.5601 202.667 46.1458 203.045 47.4176C203.431 48.6813 203.975 49.6312 204.675 50.267C205.375 50.8949 206.196 51.2088 207.138 51.2088ZM232.346 50.3636V49.0597C232.346 48.0696 232.555 47.16 232.974 46.331C233.4 45.4938 234.016 44.8258 234.821 44.3267C235.634 43.8196 236.624 43.5661 237.791 43.5661C238.974 43.5661 239.968 43.8156 240.773 44.3146C241.586 44.8137 242.198 45.4818 242.609 46.3189C243.027 47.148 243.236 48.0616 243.236 49.0597V50.3636C243.236 51.3537 243.027 52.2673 242.609 53.1044C242.19 53.9335 241.574 54.5975 240.761 55.0966C239.948 55.6037 238.958 55.8572 237.791 55.8572C236.608 55.8572 235.614 55.6037 234.809 55.0966C234.004 54.5975 233.392 53.9335 232.974 53.1044C232.555 52.2673 232.346 51.3537 232.346 50.3636ZM235.859 49.0597V50.3636C235.859 50.9351 235.996 51.4744 236.27 51.9815C236.552 52.4886 237.059 52.7422 237.791 52.7422C238.524 52.7422 239.023 52.4927 239.288 51.9936C239.562 51.4946 239.699 50.9512 239.699 50.3636V49.0597C239.699 48.4721 239.57 47.9247 239.312 47.4176C239.055 46.9105 238.548 46.657 237.791 46.657C237.067 46.657 236.564 46.9105 236.282 47.4176C236 47.9247 235.859 48.4721 235.859 49.0597ZM219.656 36.2131V34.9091C219.656 33.911 219.869 32.9974 220.296 32.1683C220.723 31.3312 221.338 30.6631 222.143 30.1641C222.956 29.665 223.938 29.4155 225.089 29.4155C226.281 29.4155 227.279 29.665 228.084 30.1641C228.889 30.6631 229.5 31.3312 229.919 32.1683C230.337 32.9974 230.547 33.911 230.547 34.9091V36.2131C230.547 37.2112 230.333 38.1248 229.907 38.9538C229.488 39.7829 228.873 40.447 228.06 40.946C227.255 41.437 226.265 41.6825 225.089 41.6825C223.914 41.6825 222.92 41.433 222.107 40.9339C221.302 40.4268 220.69 39.7628 220.272 38.9418C219.861 38.1127 219.656 37.2031 219.656 36.2131ZM223.194 34.9091V36.2131C223.194 36.8007 223.331 37.344 223.604 37.843C223.886 38.3421 224.381 38.5916 225.089 38.5916C225.83 38.5916 226.333 38.3421 226.599 37.843C226.872 37.344 227.009 36.8007 227.009 36.2131V34.9091C227.009 34.3215 226.88 33.7741 226.623 33.267C226.365 32.7599 225.854 32.5064 225.089 32.5064C224.373 32.5064 223.878 32.764 223.604 33.2791C223.331 33.7943 223.194 34.3376 223.194 34.9091ZM221.25 55L238.25 30.2727H241.413L224.413 55H221.25Z" fill="#32C07D"/>
</svg>
